<svg width="322" height="5" viewBox="0 0 322 5" fill="none" xmlns="http://www.w3.org/2000/svg">
<path d="M321.464 4.4134C302.991 4.01749 284.519 3.58594 266.059 3.23786C254.771 3.02764 243.481 2.91249 232.204 2.81347C221.839 2.72211 211.474 2.65452 201.12 2.66644C184.328 2.68702 167.51 2.67138 150.782 2.85978C105.977 3.35795 61.2236 3.95629 16.4443 4.50654C13.1978 4.54792 9.78743 4.72848 6.73518 4.46887C4.44601 4.27318 1.65803 3.5714 0.800096 2.92684C-0.532958 1.92334 2.02432 1.50256 5.35079 1.48271C24.2637 1.35699 43.1772 1.20355 62.1033 1.08604C97.3937 0.863489 132.671 0.60895 167.987 0.470162C183.599 0.408451 199.288 0.502961 214.949 0.715729C220.244 0.7896 225.54 0.871399 230.85 0.937635C235.408 0.995704 240.131 1.55267 244.506 1.41261C251.028 1.20365 257.326 2.11538 263.499 1.93064C271.793 1.68433 279.729 2.47662 287.839 2.64648C296.365 2.82128 304.904 3.01222 313.428 3.27417C316.202 3.36137 318.945 3.68963 321.703 3.91123C321.632 4.07617 321.561 4.24507 321.491 4.41397L321.464 4.4134Z" fill="#FFFFF5"/>
</svg>
