<svg width="154" height="7" viewBox="0 0 154 7" fill="none" xmlns="http://www.w3.org/2000/svg">
<path d="M153.615 2.61631C144.817 2.42776 136.02 2.20356 127.228 2.06268C121.851 1.97916 116.473 1.9907 111.101 2.01824C106.163 2.04319 101.224 2.09191 96.2907 2.21999C88.2893 2.42897 80.2758 2.60203 72.3028 2.97806C50.9477 3.97881 29.616 5.07913 8.27259 6.13165C6.72519 6.20945 5.09813 6.42823 3.64665 6.20293C2.55806 6.03296 1.23747 5.36263 0.835902 4.72785C0.211964 3.73955 1.43522 3.29019 3.0205 3.23301C12.0339 2.89513 21.0478 2.52952 30.0674 2.1997C46.8857 1.58125 63.6983 0.93097 80.5275 0.395988C87.9675 0.159128 95.4423 0.0775854 102.902 0.114602C105.425 0.129037 107.947 0.151399 110.476 0.158048C112.648 0.164957 114.892 0.668804 116.978 0.479694C120.088 0.197598 123.079 1.03846 126.022 0.784498C129.977 0.445199 133.75 1.14826 137.612 1.22708C141.673 1.30618 145.74 1.40127 149.798 1.56752C151.119 1.62357 152.422 1.92099 153.734 2.11159C153.699 2.27728 153.663 2.44693 153.627 2.61659L153.615 2.61631Z" fill="#FFFFF5"/>
</svg>
