<svg width="84" height="48" viewBox="0 0 84 48" fill="none" xmlns="http://www.w3.org/2000/svg">
<path d="M57.4579 46.0055C57.1821 46.3974 57.0382 46.7722 56.8576 46.8361C55.5864 47.2833 54.3054 48.033 53.0317 47.9989C48.2883 47.8711 43.5278 47.8498 38.8137 47.0831C33.5335 46.227 28.2826 44.7235 23.039 43.2753C18.7323 42.087 14.4916 40.3322 10.4094 37.5722C7.19594 35.3999 4.31916 32.2608 1.85718 28.0612C0.559091 25.8464 -0.299793 23.2439 0.0979301 19.8025C0.437093 16.8678 1.69858 15.36 2.95763 13.9076C5.87833 10.5257 9.17723 8.69851 12.5396 7.22054C14.3818 6.41128 16.2313 5.62757 18.0979 5.01423C20.8918 4.09849 23.6905 3.187 26.5062 2.55663C30.198 1.73033 33.9044 1.0957 37.6132 0.546249C39.7897 0.226803 41.9882 0.0266165 44.1671 0.179951C45.6775 0.286433 47.1634 -0.118197 48.6592 0.0351367C49.9719 0.167174 51.2797 0.478101 52.5925 0.610139C52.9146 0.644213 53.2537 0.137359 53.5807 0.154396C55.6669 0.256619 57.758 0.346063 59.8369 0.652731C60.2956 0.720879 60.7251 0.929584 61.1935 0.71236C61.3399 0.644212 61.54 0.89977 61.7108 1.02329C61.8743 1.14255 62.0329 1.27884 62.1939 1.40662C62.2159 1.2107 62.2379 1.01903 62.2598 0.823103C62.5941 0.984955 62.9259 1.14255 63.3383 1.34274C63.6384 1.26607 64.102 0.90403 64.468 1.09996C65.8198 1.82403 67.2155 1.26181 68.5819 1.73459C69.9825 2.22015 71.427 2.29681 72.8422 2.66311C75.8044 3.42978 78.7251 4.58404 81.3774 7.05443C82.3021 7.9148 83.1439 9.44388 83.7051 11.0156C84.503 13.2474 83.588 17.0169 82.0825 18.8739C79.8743 21.5999 77.3391 22.9671 74.7991 24.2747C68.7186 27.401 62.4477 28.8066 56.2061 30.5103C49.9939 32.2055 43.745 33.1127 37.4644 33.1808C33.98 33.2192 30.4932 32.9594 27.0089 32.7379C26.372 32.6995 25.7303 32.2694 25.1179 31.886C24.4395 31.4644 24.2614 30.5699 24.5103 29.3773C24.7787 28.0868 25.3204 28.4999 25.762 28.8279C27.5335 30.144 29.3903 30.4847 31.2862 30.4208C36.4444 30.2462 41.6051 30.1738 46.7584 29.816C49.1691 29.6499 51.5774 29.0238 53.9686 28.4147C58.4241 27.2817 62.8991 26.2595 67.3131 24.7219C71.8052 23.1545 76.3119 21.4636 80.3989 17.5578C80.8162 17.1617 81.2163 16.6847 81.5774 16.1437C83.0683 13.9289 82.9414 12.255 81.5262 10.1083C80.0646 7.88925 78.2053 7.00331 76.3656 6.41127C73.2082 5.39331 70.0313 4.36256 66.8373 3.9196C61.662 3.19978 56.4648 2.73126 51.2749 2.56515C46.4997 2.41181 41.71 2.53107 36.9422 3.00811C29.7197 3.72793 22.5534 5.40183 15.514 8.42165C11.9735 9.94222 8.45255 11.6076 5.23661 14.7084C4.22888 15.6795 3.26995 16.9019 2.42327 18.2691C1.26182 20.1475 1.28378 22.3282 2.24027 24.5302C3.48955 27.4095 5.15364 29.4156 6.83969 31.3962C10.3826 35.5575 14.4306 37.3294 18.5152 38.9096C20.6526 39.7359 22.7901 40.5835 24.9471 41.2266C27.409 41.9592 29.8881 42.5001 32.3647 43.0709C34.1093 43.4755 35.8564 43.8674 37.6083 44.1272C40.3363 44.5318 43.0667 44.9194 45.7995 45.1281C49.0081 45.3752 52.2216 45.405 55.4327 45.5711C56.0451 45.6009 56.6551 45.8224 57.4579 45.997V46.0055Z" fill="#4A2F04"/>
</svg>
