<svg width="91" height="38" viewBox="0 0 91 38" fill="none" xmlns="http://www.w3.org/2000/svg">
<path d="M2.15629 19.9343C0.238278 19.3884 0.0134114 17.494 0.000183802 15.6929C-0.0163508 13.3505 1.08484 11.6708 2.43076 10.6909C4.98039 8.83849 7.55978 6.88345 10.288 5.73094C14.0777 4.13516 17.9964 3.05263 21.9019 2.10076C25.3873 1.24687 28.9224 0.65896 32.4542 0.327672C36.0753 -0.00828168 39.7228 -0.0736242 43.3505 0.0756886C47.7057 0.257664 52.0642 0.672941 56.4062 1.2142C59.26 1.56882 62.0974 2.24072 64.9248 2.9033C69.0254 3.86917 73.1458 4.74172 77.1901 6.05754C80.9832 7.28937 84.6373 9.25377 87.7226 12.772C90.2227 15.6182 91.5388 19.463 90.7914 23.9098C90.3781 26.3688 89.1843 27.9739 87.6697 28.8371C84.9085 30.4049 82.0976 31.9213 79.2172 32.9385C72.739 35.2342 66.0888 36.0228 59.4518 36.9047C49.6766 38.2018 39.8815 38.0478 30.0832 37.9125C23.5685 37.8238 17.0771 37.124 10.6683 35.4442C8.7172 34.9309 6.65369 34.5856 5.00684 32.6912C4.78859 32.4393 4.5042 32.2106 4.40168 31.8793C4.25287 31.3941 4.11398 30.7688 4.2165 30.3162C4.27602 30.0596 4.85803 29.8263 5.14904 29.9196C6.32961 30.2975 7.47379 30.9181 8.66098 31.2401C10.8005 31.8233 12.9534 32.3273 15.1128 32.7286C17.874 33.2418 20.6386 33.7131 23.4131 34.0164C25.7709 34.273 28.1453 34.3337 30.5097 34.3617C34.6136 34.413 38.7208 34.427 42.8247 34.3477C46.6541 34.273 50.4868 34.161 54.3096 33.8717C56.8989 33.6758 59.475 33.1345 62.0577 32.7705C63.9691 32.4999 65.8937 32.3739 67.7919 31.9866C69.9777 31.5434 72.1272 30.6242 74.3164 30.3955C76.2708 30.1902 78.1855 29.7656 80.0109 28.9257C82.5275 27.7686 85.0242 26.4247 87.3952 24.7776C88.6552 23.9004 89.5943 20.9562 88.4766 18.5345C86.9356 15.1936 84.6803 13.1312 82.1637 11.9834C77.9507 10.0657 73.655 8.35322 69.3097 7.19138C61.7601 5.16632 54.1112 3.92518 46.4259 3.59389C41.3002 3.36992 36.1513 3.44925 31.0322 3.88785C24.4085 4.46177 17.831 5.82892 11.5182 8.87116C9.00821 10.0797 6.63054 11.8621 4.22972 13.4952C3.63117 13.9011 3.11529 14.6524 2.67216 15.3803C2.15298 16.2342 1.67348 17.172 2.12653 18.4598C2.2588 18.8378 2.14637 19.3837 2.14637 19.939L2.15629 19.9343Z" fill="#4A2F04"/>
</svg>
