<svg width="89" height="38" viewBox="0 0 89 38" fill="none" xmlns="http://www.w3.org/2000/svg">
<path d="M34.9222 32.8652C35.4476 32.6826 35.9674 32.3869 36.4957 32.3347C41.1656 31.8998 45.8497 31.6954 50.5056 31.0474C54.1527 30.5386 57.7774 29.5862 61.3965 28.673C65.5495 27.6249 69.7277 26.6943 73.8132 25.1852C77.5391 23.8067 81.3071 22.3933 84.6985 19.4057C85.1172 19.036 85.5303 18.6534 85.9321 18.2446C88.1181 16.0093 87.5702 13.2565 85.9742 11.1995C83.9146 8.54675 81.3745 7.4639 78.8203 6.51586C73.9649 4.71111 69.028 3.78047 64.0546 3.21078C55.5998 2.24534 47.1478 2.11923 38.6789 2.78894C31.2778 3.37168 23.9525 4.79809 16.6891 6.98554C12.9099 8.12492 9.16435 9.57307 5.69981 12.2563C4.55058 13.1478 3.47723 14.3915 2.51907 15.731C1.33332 17.3922 1.41761 19.5188 2.51626 21.354C4.35109 24.4199 6.77879 25.9898 9.16997 27.6075C13.6208 30.6169 18.2767 32.6739 23.0197 34.2047C25.7368 35.0788 28.4989 35.6093 31.2357 36.3225C31.9016 36.4965 32.5563 36.7704 33.2672 37.0183C29.9965 38.9274 26.7877 37.6011 23.6097 36.8096C19.1309 35.6919 14.7447 33.935 10.5327 31.2692C7.34357 29.2514 4.2134 27.0335 1.60868 23.4457C-0.90613 19.9797 -0.245816 15.5005 2.02735 12.7303C5.34015 8.69026 9.33574 6.9464 13.3903 5.58522C15.5764 4.85028 17.7653 4.12838 19.9682 3.53259C22.1655 2.94115 24.3768 2.48453 26.5882 2.04965C27.1277 1.94093 27.6924 2.14097 27.9987 2.17142C28.6759 1.94963 29.1479 1.79742 29.6172 1.63652C30.3309 1.39733 31.1345 1.41908 31.7808 1.40603C32.7361 1.38429 33.7055 0.266645 34.7564 1.28426C35.1526 1.66696 35.9281 1.05377 36.535 0.975496C38.0861 0.771103 39.6399 0.597148 41.1937 0.436243C42.86 0.26664 44.529 0.0448514 46.1981 0.00136341C47.2012 -0.0247294 48.2043 0.331875 49.2102 0.371014C49.9661 0.401455 50.7247 0.105741 51.4806 0.123136C52.7141 0.149229 53.9448 0.362315 55.1783 0.397105C55.9651 0.418849 56.8137 -0.0725624 57.5302 0.236202C59.4099 1.04073 61.3038 0.588457 63.1836 0.775455C65.4792 1.00159 67.7777 1.3147 70.0593 1.78003C75.1704 2.81939 80.3096 3.78047 85.0329 7.303C85.9461 7.98576 86.8312 8.92945 87.5477 10.034C89.8405 13.5783 89.3488 18.3098 86.5643 20.8799C82.8216 24.3329 78.7248 26.2768 74.5044 27.5771C69.0899 29.247 63.636 30.6212 58.2101 32.2129C53.13 33.7045 48.0076 34.4221 42.8459 34.3699C40.4632 34.3438 38.0832 33.9176 35.7005 33.6437C35.4448 33.6132 35.2003 33.3914 34.9503 33.2566C34.9418 33.1261 34.9334 32.9957 34.925 32.8652H34.9222Z" fill="#4A2F04"/>
</svg>
