<svg width="187" height="50" viewBox="0 0 187 50" fill="none" xmlns="http://www.w3.org/2000/svg">
<path d="M16.4464 17.6031C16.1926 17.5052 15.7839 17.4544 15.4652 17.7519C14.4689 18.6821 13.3744 19.4995 12.4686 20.5377C12.1079 20.951 11.7891 21.4349 11.3452 21.7571C9.22966 23.2927 7.67512 25.4449 5.56668 26.9842C5.44773 26.8755 5.32879 26.7667 5.20973 26.658C5.23289 26.4977 5.21801 26.3542 5.04433 26.2802L5.21606 25.9764C5.3799 25.6697 5.23862 25.413 5.08234 25.1589C5.08222 25.1588 5.08239 25.1591 5.08234 25.1589C5.15106 25.1144 5.26728 25.1107 5.23667 24.98C5.75746 25.0375 5.53062 24.7369 5.46068 24.5115C5.2689 24.3913 5.43445 23.8623 5.03383 24.0474C4.76688 24.1708 5.12117 24.3542 5.16067 24.5209C5.05133 24.5459 5.00061 24.606 5.0405 24.7207C4.8905 24.8526 4.72405 24.9285 4.51932 24.8734C4.40299 24.7642 4.28676 24.655 4.17054 24.5458C4.15304 24.2058 4.53921 24.2658 4.6541 24.0569C4.64582 23.9951 4.62577 23.9447 4.60932 23.8907C4.63616 23.9344 4.65521 23.9858 4.6541 24.0569C4.80455 23.7187 4.52666 23.4452 4.51466 23.1316C4.54271 22.8941 4.89694 22.6509 4.50193 22.4211C4.49527 22.308 4.48865 22.1948 4.48199 22.0817C4.51632 21.8742 4.56699 21.6627 4.34365 21.5193C4.45832 21.1329 4.12853 21.0075 3.92331 20.809C3.6253 20.7341 3.28946 20.6475 3.06973 20.8894C2.95917 21.0113 3.47313 21.0739 3.30824 21.3686C3.19423 21.5228 3.08029 21.6769 2.90695 21.9115C3.21357 21.8873 3.41191 21.8716 3.61024 21.856C3.66502 21.9187 3.71986 21.9815 3.77458 22.0442C3.72241 22.0533 3.67575 22.0748 3.6348 22.1083C3.48852 22.1156 3.34185 22.1186 3.19601 22.1312C3.0104 22.1471 2.74339 22.0406 2.74306 22.3763C2.74267 22.8094 3.12401 22.4585 3.26212 22.6167C3.07612 23.224 3.57091 22.929 3.78225 23.0097C3.83042 23.0626 3.87847 23.1155 3.92659 23.1685C3.93986 23.2293 3.9532 23.2899 3.96642 23.3508C3.80886 23.6458 3.26368 23.0394 3.24651 23.6608C3.14479 23.5989 3.04312 23.537 2.94145 23.4752C3.03156 23.5695 3.12173 23.6639 3.2119 23.7582C3.09201 23.7001 2.98451 23.6269 2.94145 23.4752C2.18977 23.5702 2.72944 24.227 2.47094 24.5757C2.14854 25.0104 2.46638 25.2159 2.90934 25.247C2.9085 25.2495 2.90662 25.2503 2.90584 25.2529C2.91178 25.2558 2.91778 25.2554 2.92373 25.258C2.91678 25.3052 2.90978 25.3524 2.90217 25.3996C2.7525 25.52 2.4376 25.3789 2.40983 25.6415C2.3876 25.8507 2.62011 25.7468 2.74056 25.7795C2.72433 25.8229 2.71144 25.8672 2.70178 25.9126C2.56361 26.0752 2.26732 26.0609 2.22932 26.3355C2.13232 26.8158 2.39138 27.136 2.71861 27.4256L2.69961 27.4719C2.69961 27.4719 2.739 27.5021 2.73928 27.5024C2.63722 27.6283 2.47144 27.877 2.44249 27.8619C1.57225 27.4097 1.8107 28.1658 1.73487 28.5236C1.68131 28.7765 1.7152 29.048 1.71003 29.3112C1.88815 29.6704 1.71303 30.0264 1.70075 30.3838C1.58297 30.6255 1.63342 30.8913 1.47869 31.1623C1.2848 31.5021 1.33408 32.0058 1.82448 32.25C1.46164 32.4287 2.13554 32.9169 1.58836 33.0412C1.37908 33.0888 1.28291 33.2713 1.35924 33.4227C1.48164 33.6654 1.68097 33.2551 1.84965 33.426C1.85065 33.6369 1.8517 33.8478 1.8527 34.0587C0.957513 34.1192 2.05821 34.4355 1.78637 34.5758C0.983124 34.5982 0.629949 35.3162 0.965402 36.2453C0.964235 36.452 0.963013 36.6587 0.961957 36.8655C-0.0229001 37.6611 1.30552 37.1944 1.2873 37.4627C0.835843 37.833 0.807398 37.9878 1.16107 38.1502C1.32697 38.6874 0.545003 38.8455 0.674672 39.3682C0.442056 39.709 0.528502 40.0045 0.802842 40.2734C0.91679 40.5124 0.419389 40.5414 0.618838 40.8098C0.596837 40.8625 0.595448 40.9158 0.614171 40.9698C0.425111 41.4778 1.11724 41.3362 1.14196 41.6866C0.882066 41.9254 -0.0319559 41.917 0.807954 42.5716C0.784953 42.8161 0.472112 43.0013 0.66145 43.2892C0.0632131 43.819 0.445723 44.248 0.804231 44.6794C0.80062 44.7391 0.796953 44.7988 0.793287 44.8586C0.433111 45.3545 0.374498 45.889 0.589226 46.4584C0.410722 46.582 0.463167 46.7792 0.432722 46.95C0.377388 46.958 0.32372 46.9724 0.271829 46.9934C-0.0136776 47.1856 0.128993 47.4724 0.110881 47.7236C-0.283906 48.3055 0.53228 48.8601 0.149715 49.4417C0.234773 49.457 0.319886 49.4724 0.404999 49.4876C0.423722 49.5307 0.422611 49.5733 0.401721 49.6154C0.267051 49.6405 0.0684355 49.6629 0.165716 49.8485C0.289496 50.0845 0.478557 50.0165 0.631449 49.838C0.941735 49.8579 1.22707 49.8234 1.3788 49.4962C1.59492 49.4227 1.81114 49.3492 2.02737 49.2757C2.40838 48.9715 2.08515 48.7052 1.98165 48.4271C2.12121 48.418 2.26066 48.409 2.40016 48.3999C2.55555 48.386 2.71083 48.3722 2.86628 48.3584L2.72711 48.0825C2.65483 47.8379 2.4066 47.8189 2.23677 47.6994C2.1291 47.3793 2.49899 47.3873 2.581 47.1975C2.692 47.0823 2.80295 46.9671 2.91401 46.8519C2.68917 46.681 2.45488 46.7111 2.21699 46.819C2.10304 46.8172 1.9892 46.8155 1.87531 46.8137C1.92198 46.6966 1.9687 46.5795 2.01543 46.4624C2.14715 46.4547 2.27888 46.447 2.41066 46.4393C3.08895 46.5966 3.11334 46.2607 2.92495 45.7644C2.92584 45.7625 2.92678 45.7606 2.92773 45.7589C3.20523 45.792 3.4623 45.7311 3.41441 45.3996C3.38768 45.2138 3.21829 45.4328 3.10129 45.4061C3.10284 45.4029 3.10434 45.3997 3.10595 45.3966C3.0974 45.3981 3.09268 45.3971 3.08451 45.3984C3.11284 45.1267 3.2949 44.751 2.74028 44.8743C2.74006 44.8683 2.74083 44.8617 2.74039 44.856C2.73278 44.858 2.72644 44.8629 2.71894 44.8651C2.67405 44.8043 2.629 44.7437 2.584 44.683C2.40077 44.3659 3.29801 43.8204 2.36821 43.6615L2.39444 43.6247C2.55727 43.361 2.94451 43.5774 3.09862 43.295C3.14312 43.2083 3.30029 43.0444 3.15829 43.0388C2.81661 43.0254 2.39688 42.9052 2.19443 43.3576C2.14682 43.357 2.10182 43.3448 2.05915 43.3206C2.01776 43.0584 2.12115 42.8655 2.34155 42.7285C2.52555 42.7311 2.7425 42.8331 2.86634 42.6208C2.9664 42.4496 2.88112 42.3072 2.71733 42.2121C2.71122 42.0821 2.85573 41.8844 2.56872 41.8806C2.38221 41.8226 2.12782 41.9577 2.01626 41.6863C2.01882 41.5693 2.02143 41.4523 2.02398 41.3353C2.08521 41.2134 2.14649 41.0915 2.20777 40.9696C2.32516 40.9873 2.44255 41.0049 2.56 41.0224C2.91806 41.4444 2.92351 40.8748 3.11395 40.8252C3.22001 40.7393 3.50574 40.844 3.45102 40.6396C3.38613 40.3974 3.11618 40.5216 2.92889 40.5151C2.86534 40.3345 2.72333 40.2761 2.54777 40.27C2.76445 39.6897 2.11515 40.0141 1.96743 39.7993C2.23793 39.4507 2.63328 39.5369 2.91517 39.3658C3.10773 39.2961 3.38629 39.4667 3.49063 39.1977C3.51869 39.1254 3.36379 38.9822 3.29301 38.8715C3.32029 38.8676 3.34946 38.8686 3.37424 38.8585C3.39891 38.8485 3.43991 38.8155 3.43841 38.8129C3.17268 38.351 2.94428 38.6366 2.71211 38.8509C2.66283 38.8446 2.61405 38.8474 2.56577 38.8593C2.45633 38.7504 2.34688 38.6415 2.23738 38.5326C2.64883 38.034 3.3344 38.4352 3.94025 37.986C3.46824 38.034 3.44818 37.5748 3.10134 37.594C3.69597 37.1625 3.03079 37.2316 2.90067 37.088C2.97662 36.9764 3.05256 36.8648 3.12857 36.7532C3.49702 36.6651 3.86542 36.5771 4.23748 36.4881C4.06037 36.0174 3.75814 36.1641 3.48374 36.2112C3.35663 35.8089 2.87967 35.596 2.89262 35.1179C3.06506 35.1299 3.2374 35.1456 3.41007 35.1528C3.58285 35.1601 3.81508 35.1811 3.85769 34.9914C3.9122 34.7484 3.60919 34.7396 3.4838 34.6063C3.59291 34.4947 3.70208 34.3831 3.81114 34.2715C4.28754 34.1636 4.49971 33.9842 3.99003 33.6095C4.32521 33.3486 4.56054 33.7517 4.85811 33.7401C5.13411 33.9277 5.39423 34.1505 5.75641 34.1477C6.2127 34.179 6.00558 34.4163 5.90308 34.6211C5.87263 34.6598 5.83858 34.6965 5.8143 34.7387C5.80885 34.7481 5.84091 34.7959 5.84963 34.7943C6.17564 34.7317 6.37664 34.9131 6.55082 35.1488C6.67982 35.3733 6.36881 35.4883 6.37898 35.518C6.49137 35.8456 6.65726 35.623 6.80888 35.532C7.16016 35.7493 7.51167 35.9666 7.86301 36.1839C8.17436 36.3848 7.92179 36.3786 7.77935 36.4508C7.65884 36.5119 7.23722 36.3455 7.50423 36.7594C7.56901 36.8769 7.63379 36.9944 7.69851 37.1119C7.81468 37.4492 8.27897 37.1365 8.39019 37.4829C8.36542 37.8903 8.13397 38.2758 8.36553 38.7113C8.57653 39.1081 8.63009 38.6341 8.76293 38.6768C9.0606 38.718 9.38211 38.6187 9.65123 38.8278C9.63628 38.9421 9.62139 39.0564 9.60639 39.1706C9.4765 39.1584 9.23888 39.1167 9.23294 39.1384C9.14532 39.4585 9.51111 39.408 9.61761 39.5816C9.68245 39.8248 10.0081 39.6814 10.0305 39.7711C10.2505 40.6514 11.0359 40.8509 11.6903 41.2138C11.8203 41.2859 11.8918 41.426 11.8217 41.579C11.3664 42.5712 12.0073 42.4688 12.6264 42.3907C12.8055 42.4298 12.8901 42.2871 13.0013 42.1955C13.4056 42.2716 13.5639 42.0964 13.5061 41.7004C13.569 41.5804 13.6318 41.4605 13.6948 41.3405C13.8878 40.7636 13.4308 40.6824 13.0759 40.5233C14.0326 40.5401 13.8979 39.8342 13.9178 39.2305C14.1143 39.2629 14.31 39.3085 14.5076 39.3194C14.5652 39.3226 14.6283 39.2267 14.6888 39.1762C14.5983 39.1209 14.5078 39.0657 14.4173 39.0104C14.27 38.2959 14.1314 38.7743 13.9908 38.9668C13.9451 38.9784 13.8994 38.9944 13.8537 39.0145C13.6812 39.0289 13.5087 39.0434 13.3361 39.0578C13.279 39.0599 13.2218 39.062 13.1646 39.0642C13.1595 38.9906 13.1544 38.917 13.1494 38.8435C13.1599 38.7922 13.173 38.7415 13.1883 38.6914C13.396 38.6838 13.2393 38.0005 13.6853 38.4257C13.8209 38.5551 13.9603 38.5217 14.0189 38.3436C14.0694 38.1904 13.9929 38.0755 13.857 37.9781C13.6262 37.8126 13.4048 37.9898 13.1803 37.9688C13.2051 37.7732 13.6012 37.4825 13.0441 37.4359C12.9414 37.2813 13.5243 36.7872 12.7992 36.9405C12.2688 36.7298 11.7078 36.6103 11.1679 36.4272C10.8128 36.3067 10.6287 36.1887 10.5613 35.8498C10.7241 35.7918 10.8868 35.7338 11.0496 35.6757C11.2278 35.6675 11.4058 35.6592 11.5839 35.651C11.7905 35.6653 12.0633 35.5723 12.0417 35.4173C12.0048 35.1512 11.7413 35.3444 11.5749 35.3324L11.2184 35.3276C11.215 35.2635 11.2116 35.1994 11.2081 35.1353C11.1085 34.8598 10.8735 34.9971 10.6936 34.9662C10.5667 34.7935 10.4305 34.6379 10.1831 34.6823C10.1152 34.6486 10.0473 34.6149 9.9794 34.5812C9.9494 34.5355 9.91945 34.4898 9.8894 34.444C9.82078 34.1625 10.1045 33.6546 9.46178 33.7422C9.46166 33.7407 9.46216 33.7397 9.46205 33.7382C9.454 33.7361 9.44583 33.7341 9.43778 33.7321C9.36033 32.9048 8.84998 32.6732 7.85985 33.0183H6.68137C6.94966 32.7987 7.15639 32.6294 7.4395 32.3975C6.81688 32.2193 6.22736 32.3283 5.73057 32.0187C5.92147 31.6891 6.47454 31.9361 6.44376 31.4379C6.54415 31.3494 6.64443 31.2609 6.74471 31.1724L6.47026 31.0463C6.40776 30.9973 6.34525 30.9482 6.28275 30.8992C6.27198 30.7125 6.2612 30.5258 6.25048 30.3392C5.7698 29.7353 5.33251 30.6133 4.86255 30.3798C4.88622 30.3275 4.88983 30.2738 4.87322 30.2188C5.38434 30.2201 5.17223 29.6544 5.45434 29.4762C5.50896 29.1256 5.08672 29.3964 5.04967 29.1652C5.28117 28.3621 5.97152 29.4092 6.28114 28.896C6.18831 28.6906 5.86158 28.9242 5.86485 28.6238C6.13097 28.2275 6.77632 28.7257 6.96377 28.1513C6.62965 27.8117 5.94052 28.6332 5.89024 27.96C5.85341 27.4673 6.58909 27.8424 6.93371 27.6657C7.10672 27.577 7.50101 27.6063 7.26406 27.243C7.02272 26.8728 6.99355 26.8919 7.32806 26.6456C7.44689 26.6535 7.56584 26.6615 7.68462 26.6693C7.93713 26.6751 8.21413 26.7873 8.40008 26.5041C8.5957 26.5371 8.76954 26.7765 8.99404 26.5153C9.16821 26.3127 8.85976 26.249 8.91887 26.0979L9.78806 25.9421C10.0686 26.0021 10.1322 25.8187 10.1676 25.6035C10.4092 25.5714 10.5829 25.5105 10.3124 25.2614C10.1548 25.2153 10.1443 25.0833 10.132 24.9523C10.1423 24.8846 10.1526 24.8169 10.163 24.7492C10.2809 24.5677 10.6851 24.391 11.0389 24.3662H11.6286C11.5468 24.1148 11.1884 24.1506 11.2315 23.8617C11.3438 23.8448 11.4897 23.8671 11.563 23.8044C11.9956 23.4351 11.8446 22.5706 12.6548 22.5145C12.645 22.4875 12.6351 22.4605 12.6254 22.4335C12.629 22.3485 12.6325 22.2635 12.6362 22.1785C13.1184 22.3153 13.5374 22.311 13.687 21.7064C14.2661 21.4893 14.1691 21.2693 13.69 21.0477C13.7513 20.9737 13.8126 20.8998 13.874 20.8259C14.3878 21.1519 14.2013 20.3197 14.5793 20.4019C15.2289 20.5429 15.2402 19.4432 15.9492 19.6866C15.9646 19.5747 15.9935 19.4627 15.9927 19.3508C15.9907 19.09 15.9743 18.8293 15.9638 18.5684C16.0907 18.4488 16.2176 18.3291 16.3444 18.2094C16.8311 18.0766 16.8533 17.7601 16.4464 17.6031ZM4.00875 25.8491C4.00498 25.8325 4.00442 25.8147 4.00181 25.7978C4.01481 25.8032 4.02481 25.8116 4.03931 25.8155C4.02909 25.8267 4.0222 25.8387 4.00875 25.8491ZM4.3306 27.3549C4.3321 27.3615 4.3321 27.3663 4.33365 27.373C4.32726 27.3732 4.32098 27.3734 4.31459 27.3736C4.32004 27.3674 4.32532 27.3612 4.3306 27.3549ZM2.74139 28.0692C2.74133 28.0697 2.74111 28.0702 2.74111 28.0707C2.74039 28.0708 2.73961 28.0711 2.73895 28.0712C2.74006 28.0705 2.74028 28.0698 2.74139 28.0692ZM1.19835 36.6431C1.19485 36.641 1.18969 36.6409 1.18641 36.6386C1.14924 36.6126 1.13607 36.5726 1.12991 36.5282C1.16285 36.5665 1.18891 36.6049 1.19835 36.6431ZM2.12437 42.1438C2.11365 42.1539 2.10282 42.1641 2.0921 42.1742C2.08337 42.1796 2.07454 42.185 2.06576 42.1904C2.06393 42.1885 2.06198 42.1866 2.06021 42.1847C2.07826 42.1656 2.09926 42.1515 2.12437 42.1438ZM8.80432 33.5898C8.80176 33.5844 8.79932 33.5789 8.79698 33.5733C8.8017 33.5737 8.80648 33.5742 8.8112 33.5746C8.80809 33.5801 8.8072 33.5845 8.80432 33.5898ZM9.65123 38.8278C9.66006 38.8566 9.67422 38.8849 9.68778 38.9133C9.65439 38.8911 9.63661 38.8643 9.65123 38.8278Z" fill="#FFFFF5"/>
<path d="M157.688 32.4097C157.498 32.2801 157.376 32.4439 157.219 32.4742C156.569 32.5999 156.026 32.9703 155.434 33.2203C154.487 33.6202 153.51 33.8845 152.511 34.0947C152.342 34.0884 152.172 34.0823 152.003 34.0761C151.804 33.6918 151.538 33.481 151.097 33.729C150.476 33.5079 150.075 32.9686 149.527 32.6411C149.342 32.196 149.557 31.623 149.09 31.2679C149.214 30.8746 149.073 30.6458 148.666 30.5808C148.467 30.5761 148.267 30.5715 148.068 30.5669C147.839 30.5249 147.552 30.7006 147.394 30.389C147.743 30.109 147.938 29.7232 148.118 29.3278C148.159 29.3141 148.201 29.3101 148.244 29.3103C148.306 28.8492 148.694 29.0235 148.96 28.9589C149.06 28.1661 148.533 28.3769 148.108 28.425C147.768 28.2833 147.512 28.5575 147.21 28.6068C147.123 28.4142 146.79 28.3825 146.866 28.0824C147.149 28.1517 147.275 27.9815 147.364 27.7551C147.316 27.6371 147.268 27.5191 147.219 27.4011C147.331 27.3898 147.439 27.2182 147.555 27.3922C147.756 27.6683 148.035 27.5458 148.292 27.5378C148.984 27.5682 148.886 27.2274 148.632 26.8131C148.644 26.7775 148.638 26.7447 148.616 26.7147C148.773 26.6318 148.917 27.0422 149.006 26.7814C149.08 26.5643 148.84 26.4035 148.595 26.3644C148.602 26.2301 148.609 26.0958 148.616 25.9616C148.85 25.9687 149.214 26.1093 149.233 25.7736C149.255 25.3847 148.855 25.4643 148.587 25.4447C147.796 25.66 147.772 25.6621 147.437 25.2121C147.658 25.2359 147.527 24.8511 147.76 24.8887C147.761 24.8881 147.762 24.8876 147.762 24.887C148.255 25.2456 148.74 25.5779 148.83 24.5627C148.985 24.4792 149.133 24.3937 148.956 24.1964C149.037 24.0352 149.118 23.874 149.2 23.7129C149.361 23.6528 149.656 23.7563 149.639 23.4749C149.622 23.1917 149.319 23.3801 149.17 23.2857C149.168 23.1767 149.165 23.0677 149.163 22.9587C149.22 22.9579 149.275 22.9469 149.328 22.9259C149.454 23.0155 149.59 23.2361 149.739 23.0691C149.999 22.7759 149.446 22.8313 149.495 22.6015C149.612 22.4328 148.996 22.2913 149.477 22.109C149.972 22.3684 149.782 21.8988 149.877 21.7324C150.068 21.3781 149.171 21.2584 149.684 20.8346C149.707 20.7723 149.723 20.7084 149.739 20.6447C149.737 20.7115 149.725 20.7762 149.684 20.8346C149.895 20.5104 150.283 20.2247 149.913 19.7749C150.204 19.5505 150.433 19.2994 150.285 18.8901C150.333 18.575 149.866 18.576 149.903 18.2674C149.95 18.2083 149.997 18.1491 150.044 18.0899C150.245 17.9772 150.496 17.9239 150.566 17.6537C150.593 17.509 150.615 17.3655 150.483 17.2536L150.21 16.7713C150.262 16.3667 150.892 16.8439 150.867 16.3186C150.643 16.1652 150.318 16.4049 150.086 16.1355C150.391 15.9879 150.457 15.7257 150.569 15.4175C150.773 14.8571 150.198 14.4638 150.399 13.9582C150.624 13.9143 150.786 14.2606 151.019 14.0667C151.053 14.0385 150.967 13.8662 150.937 13.7604C151.152 13.4887 150.738 13.5667 150.743 13.4117C150.966 13.2309 151.126 13.0308 150.953 12.7282L150.953 12.7276C151.14 12.4761 151.129 12.236 150.912 12.0077C151.065 11.7564 150.964 11.595 150.726 11.4819C150.851 11.2977 150.976 11.1134 151.101 10.9292C151.332 10.6648 151.2 10.3753 150.707 10.0606C151.032 9.8877 151.124 9.60125 150.983 9.20128C151.244 9.06783 151.066 8.82677 151.119 8.64232C151.183 8.58815 151.247 8.53404 151.311 8.47987C151.609 8.31887 151.202 8.24965 151.265 8.11931C151.263 7.99981 151.197 7.94114 151.084 7.92703C151.147 7.84003 151.201 7.74463 151.274 7.66752C151.671 7.2514 151.311 7.3814 151.091 7.40951C151.102 7.35185 151.113 7.29423 151.125 7.23662C151.241 7.2414 151.427 7.23334 151.404 7.11701C151.329 6.74861 150.999 6.4066 151.441 6.03331C151.763 5.76131 150.616 5.96526 151.257 5.57841C151.678 5.32402 151.424 5.02918 151.437 4.74434C151.687 4.62439 151.61 4.39794 151.614 4.19805C151.62 4.0086 151.729 3.78454 151.443 3.69387L151.466 3.65426C151.482 3.6217 151.482 3.58887 151.468 3.55581C151.573 3.48847 151.807 3.56592 151.765 3.34114C151.718 3.08619 151.533 2.95424 151.27 2.94546C151.524 2.68157 151.502 2.41073 151.29 2.13511C151.605 2.05822 151.958 1.82904 151.983 1.60037C152.041 1.09025 151.504 1.70121 151.359 1.36164C151.3 1.22459 151.117 1.14097 150.99 1.03308C151.254 1.06958 151.302 0.918134 151.278 0.703128C151.408 0.533402 151.807 0.624349 151.75 0.313174C151.693 0.00677794 151.279 0.22295 151.123 0C150.607 0.0543902 150.204 0.476345 149.657 0.4504C149.571 0.446344 149.372 0.59357 149.465 0.661238C149.927 0.999969 149.425 1.19436 149.379 1.45192C149.348 1.62704 149.462 1.71004 149.604 1.76849C149.604 1.76843 149.604 1.76849 149.604 1.76849C149.468 2.02194 149.139 1.91544 148.971 2.10894C148.824 2.07 148.609 2.05927 148.615 2.22089C148.627 2.52062 148.728 2.82246 149.128 2.83318C149.19 2.88429 149.252 2.93541 149.314 2.98646C149.385 3.14619 149.456 3.30591 149.528 3.46558C149.552 3.69715 149.919 3.75115 149.827 4.0431C149.827 4.04315 149.827 4.04299 149.827 4.0431C149.541 4.29599 149.099 4.43083 149.148 4.9379C148.473 5.0729 148.448 5.11935 148.792 5.6043C148.771 5.65064 148.77 5.69769 148.787 5.74542C148.699 6.18765 149.084 6.32177 149.315 6.5561C149.252 6.60788 149.189 6.65961 149.125 6.71139C148.853 6.776 148.78 6.96595 148.786 7.2229C148.793 7.51641 149.017 7.38513 149.154 7.4259C149.128 7.47085 149.125 7.51713 149.145 7.56485C148.988 7.69785 148.876 7.83136 149.141 7.9687C148.966 8.05975 148.791 8.15075 148.616 8.24176C148.452 8.72649 149.061 8.50843 149.116 8.79355C149.191 8.80255 149.265 8.81149 149.34 8.82049C149.34 8.8206 149.333 8.82594 149.333 8.82594C149.335 8.82377 149.337 8.82316 149.34 8.82105V8.82049C149.367 8.79849 149.394 8.77649 149.421 8.75399C149.484 8.67482 149.517 8.58121 149.553 8.4886C149.61 8.57738 149.673 8.66271 149.737 8.74644C149.602 8.68149 149.469 8.70177 149.34 8.82105C149.337 8.93822 149.315 9.06539 149.476 9.10389C149.22 9.17895 149.32 9.35812 149.355 9.51834C149.149 9.68235 148.844 9.36412 148.666 9.66007C148.4 9.39155 148.184 9.4619 148.019 9.87113H148.447C148.564 10.0746 148.795 10.0224 148.966 10.1036C148.574 10.2042 148.311 10.3644 148.648 10.7997C148.641 11.1508 148.22 11.0094 148.088 11.2712C148.34 11.2908 148.566 11.3082 148.791 11.3257C148.767 11.7007 148.962 11.5581 149.134 11.4711C149.299 11.7266 149.549 11.8147 149.838 11.8268C149.826 12.0038 149.695 12.01 149.565 12.017C149.37 12.0091 149.175 12.0012 148.98 11.9933C148.76 11.8882 148.623 12.1563 148.436 12.1244C148.27 12.0959 148.1 11.9542 148.081 12.2642C148.065 12.5186 148.058 12.7643 148.437 12.6729C148.674 12.678 148.81 12.9981 149.086 12.8811C149.165 12.9955 149.245 13.1099 149.324 13.2242C148.989 13.2962 148.714 12.8241 148.347 13.1355C148.599 13.4247 149.085 13.2743 149.311 13.6199C149.375 14.6595 148.399 14.2377 147.967 14.579C147.965 14.5789 147.962 14.5785 147.96 14.5784L147.956 14.5862C146.79 14.7865 147.67 15.3125 147.777 15.7153C147.5 15.9979 147.342 15.97 147.335 15.5462C147.321 15.5473 147.307 15.5483 147.3 15.5489C147.274 15.8855 147.249 16.2208 147.224 16.5562C147.241 16.5877 147.257 16.6083 147.274 16.622C147.393 16.7783 147.503 16.9344 147.208 17.0785C146.436 17.1147 147.047 17.4409 147.089 17.6478C147.043 17.8572 146.876 17.8426 146.72 17.8467C146.046 17.9422 146.444 18.305 146.535 18.5909C146.897 19.0438 146.251 18.9655 146.171 19.2536H146.835C146.669 19.5209 146.763 19.6853 147.059 19.7699C146.887 19.9206 146.737 20.1475 146.538 20.2076C145.944 20.3867 146.135 20.6671 146.385 20.9834C146.255 21.0007 146.165 21.0597 146.156 21.2027C145.836 21.8715 145.753 22.4557 146.757 22.6541C145.945 22.7013 145.613 22.8697 145.396 23.3306C145.182 23.7863 145.726 23.7244 145.844 23.972C145.983 24.2634 146.347 24.5285 145.673 24.5488C145.717 24.8928 145.11 24.8609 145.26 25.2658C145.353 25.6145 144.993 25.9652 145.265 26.313C145.287 26.262 145.312 26.2272 145.34 26.2019C145.313 26.2315 145.288 26.2668 145.265 26.313C144.942 26.782 145.598 26.9573 145.572 27.3374L145.491 27.3541C145.305 27.1309 145.063 27.0528 144.765 27.0366C144.849 27.2866 144.953 27.4459 145.212 27.3982C145.303 27.7327 144.953 27.8622 144.867 28.1332C144.69 28.6952 144.739 29.5337 145.077 29.852C145.087 29.9665 145.098 30.0809 145.108 30.1954C145.052 30.1735 144.995 30.1712 144.938 30.1886C144.961 30.2121 144.985 30.2355 145.008 30.259C144.977 30.2429 144.951 30.2226 144.938 30.1886C144.745 30.1664 144.559 30.2034 144.561 30.4298C144.564 30.7956 144.909 30.6334 145.09 30.731C145.115 30.837 145.179 31.0275 145.158 31.0368C144.431 31.3757 144.924 31.7651 145.104 32.1396C145.118 32.5309 145.159 32.9061 145.627 33.0304C145.697 33.3126 145.942 33.4373 146.142 33.6017C146.006 33.6577 145.869 33.7136 145.732 33.7696C145.516 33.7547 145.204 33.6053 145.135 33.8967C145.058 34.2245 145.436 34.1653 145.625 34.2618C146.018 34.706 146.635 34.9867 146.666 35.6999C146.669 35.7592 146.783 35.8134 146.845 35.87C146.883 36.1377 146.946 36.3418 147.213 36.0111C147.356 36.0249 147.499 36.0521 147.642 36.0494C147.833 36.0459 148.077 36.3199 148.207 35.9522C148.384 35.4474 147.937 35.7812 147.816 35.6663C147.609 35.4688 147.744 35.3868 147.903 35.2939L148.099 35.3016C148.337 35.3016 148.575 35.3016 148.847 35.3016C148.533 35.6687 148.545 36.1897 148.856 36.2882C149.139 36.3776 149.589 37.0709 150.013 36.274C150.115 36.0814 150.727 35.6883 151.258 36.0172C151.539 36.1917 151.879 36.1324 152.134 35.8655C152.485 36.0828 152.837 36.1804 153.19 35.8705C153.192 35.7426 153.194 35.6146 153.196 35.4866C153.471 34.9544 153.793 35.4785 154.053 35.505C154.654 35.5665 154.902 34.7915 155.501 35.0011C155.919 35.1976 156.034 34.998 156.008 34.6128C156.164 34.2661 155.916 33.6474 156.676 33.7104C157.235 33.7569 157.53 33.3826 157.577 32.8708C157.592 32.7014 158.028 32.6429 157.688 32.4097ZM147.034 18.3313C147.045 18.2465 147.104 18.1991 147.21 18.1886C147.125 18.2224 147.071 18.2724 147.034 18.3313ZM147.792 29.1842C147.782 29.1651 147.769 29.1523 147.759 29.1357C147.778 29.1436 147.797 29.1515 147.816 29.1594C147.807 29.167 147.8 29.1762 147.792 29.1842ZM147.294 28.9447C147.292 28.9461 147.291 28.9478 147.289 28.9492C147.29 28.9465 147.292 28.9448 147.293 28.9421C147.294 28.9429 147.294 28.9438 147.294 28.9447ZM149.865 4.55433C149.882 4.58122 149.893 4.60539 149.903 4.6285C149.884 4.60817 149.87 4.58467 149.865 4.55433ZM145.454 25.9384C145.414 25.9148 145.398 25.8706 145.408 25.8041C145.419 25.8518 145.435 25.8963 145.454 25.9384Z" fill="#FFFFF5"/>
<path d="M138.052 28.6181C137.878 28.6398 137.656 28.6004 137.54 28.6935C136.97 29.1493 136.5 29.422 136.087 29.4656C135.589 29.1618 135.729 29.7062 135.572 29.8547C135.55 30.248 135.069 30.0986 134.953 30.3799C134.834 30.3747 134.826 30.4505 134.836 30.54C134.36 31.2314 133.584 31.1045 132.908 31.249C132.489 30.8298 131.713 31.2819 131.397 30.6393C131.15 30.1374 130.779 29.7308 130.437 29.3007C130.382 29.0097 130.173 28.9457 129.919 28.9501C129.842 28.7831 130.031 28.5309 129.752 28.4281C130.079 27.8956 129.698 27.3728 129.731 26.8443C129.833 26.6233 129.451 26.6911 129.52 26.4903C129.624 26.3206 129.436 26.2622 129.39 26.1494C129.389 26.1483 129.388 26.1464 129.387 26.1453C129.558 25.9113 130.021 26.6932 130.051 25.9671C130.269 25.8923 130.206 25.7167 130.094 25.6614C129.681 25.4585 129.993 25.2455 130.057 25.0346C130.004 24.9895 129.95 24.9444 129.897 24.8992C130.253 24.6002 130.347 24.1696 130.383 23.7529C130.41 23.4294 130.021 23.6818 129.893 23.5164C129.837 23.5117 129.781 23.5069 129.725 23.5022C129.589 23.4615 129.394 23.5314 129.36 23.3039C129.456 23.0698 129.854 23.2924 129.883 22.9578C130.05 22.8903 130.316 22.8593 130.358 22.7456C130.406 22.6169 130.162 22.6052 130.025 22.586C130.182 22.326 129.796 22.1504 129.918 21.896C130.295 21.6909 129.935 21.5374 129.88 21.3626C130.317 20.8351 129.815 20.6057 129.544 20.3027C129.589 20.1163 129.921 20.031 129.734 19.763C129.711 19.4038 129.535 19.2235 129.163 19.2685C129.032 18.9722 128.621 19.1765 128.485 18.8893C129.142 18.5389 129.163 18.1815 128.497 17.817C128.011 17.7177 128.035 16.7011 127.257 17.1253C127.207 17.1218 127.156 17.1192 127.106 17.1175C127.1 16.8689 126.991 16.7297 126.728 16.7564C126.714 16.5056 127.458 16.441 126.904 16.0577C126.833 15.7245 126.351 15.7582 126.32 15.306C126.298 14.9971 126.037 15.3822 125.871 15.3735C125.537 15.3803 125.519 15.7602 125.278 15.8761C125.258 15.8497 125.236 15.8361 125.213 15.8291C125.121 15.6626 125.287 15.1222 124.792 15.5414C124.719 15.5467 124.646 15.5519 124.573 15.5571C124.427 15.4483 124.145 15.6678 124.084 15.3546C124.351 15.2923 124.458 15.0939 124.642 14.7734C124.184 14.8676 124.06 15.1355 123.895 15.3529C123.473 15.2788 123.053 15.6103 122.626 15.3641C122.616 15.3582 122.521 15.464 122.526 15.4711C122.95 16.0275 122.195 15.9371 122.12 16.2156C122.063 16.2241 122.007 16.2367 121.952 16.2532C121.614 16.3586 121.637 16.6654 121.579 16.9264C121.519 16.9139 121.468 16.9295 121.425 16.9735C121.366 16.962 121.306 16.9506 121.247 16.9392C120.853 16.7124 120.662 16.8067 120.708 17.2788C120.446 17.6568 121.028 17.6926 120.992 17.9794C120.786 17.9547 120.488 17.8345 120.393 17.9256C120.208 18.104 120.42 18.3261 120.532 18.5134C120.385 18.6408 120.218 18.5826 120.056 18.5609C119.915 18.9516 119.201 19.2309 119.821 19.7696C119.851 19.9603 119.728 20.1943 119.977 20.3232C119.986 20.3751 119.998 20.4261 120.014 20.4762C119.546 20.6555 119.64 21.0358 119.684 21.3985C119.676 21.4433 119.68 21.487 119.696 21.5297C119.62 21.6095 119.545 21.6893 119.469 21.7692C118.785 21.4756 119.041 22.0753 118.911 22.3358C118.678 22.8013 118.967 22.7897 119.276 22.7863C119.522 23.3985 118.835 23.1941 118.651 23.4582C118.922 23.7673 119.211 23.4613 119.468 23.5292C119.36 23.6296 119.252 23.7301 119.144 23.8305C118.8 23.7293 118.447 24.0179 118.105 23.8082C118.081 23.762 118.061 23.7147 118.042 23.6669C117.759 23.7153 117.733 23.9296 117.735 24.1615C117.863 24.3968 117.567 24.8642 118.12 24.8663C118.349 25.1587 118.116 25.2935 117.924 25.4425C117.63 25.524 117.507 25.7316 117.543 26.0196C117.582 26.3311 117.827 26.3222 118.062 26.3109C118.058 26.8572 118.511 27.313 118.373 27.8856C118.239 27.893 117.988 27.8941 117.987 27.9086C117.971 28.2077 118.294 28.233 118.426 28.4231C118.443 28.4783 118.464 28.5323 118.488 28.585C118.405 28.5938 118.323 28.6026 118.24 28.6114C118.066 28.6761 117.892 28.7407 117.718 28.8054C117.504 28.8153 117.542 28.2199 117.247 28.5634C117.094 28.7406 116.665 28.8086 116.845 29.2194C116.978 29.5237 117.18 29.3301 117.359 29.3172C117.343 29.4956 117.326 29.6739 117.31 29.8523C117.194 29.8656 117.048 29.9077 117.086 30.0323C117.158 30.2722 117.381 30.3403 117.612 30.3658C117.673 31.2185 118.163 30.4358 118.411 30.5759C118.467 31.149 118.957 31.0082 119.296 31.1156C119.181 31.2768 119.066 31.438 118.95 31.5992C118.91 31.7084 118.675 31.8761 118.91 31.9177C119.279 31.983 119.464 32.352 119.828 32.3824C120.219 32.7566 120.594 33.1838 121.211 32.787C121.24 32.5539 121.265 32.317 121.584 32.3118L121.772 32.4876C121.786 32.6862 121.622 33.0128 121.972 33.0049C122.258 32.9986 122.083 32.6902 122.119 32.5177C122.119 32.4443 122.119 32.3709 122.119 32.2975C122.23 32.0681 122.4 31.9017 122.64 32.0878C122.821 32.2286 122.871 32.276 123.007 32.1498C123.006 32.1515 123.006 32.1533 123.005 32.155C123.008 32.1538 123.011 32.1526 123.014 32.1515C122.964 32.5311 123.246 32.6618 123.444 32.4607C123.739 32.1609 124.028 32.4449 124.292 32.329C124.612 32.1548 125.175 32.6539 125.307 31.962C125.734 32.2658 125.81 31.8448 125.986 31.633C126.157 31.8304 126.367 32.0883 126.598 31.7869C126.845 31.4637 126.444 31.4908 126.298 31.3738C126.217 31.3088 126.168 31.1757 126.348 31.1265C126.487 31.4208 126.613 31.3105 126.737 31.1146C126.954 30.9763 127.523 31.428 127.4 30.7191C127.794 30.9043 128.384 30.428 128.639 31.0862C128.771 31.2576 128.258 31.4583 128.663 31.6174L128.674 31.8081C128.666 31.9389 128.613 32.0926 128.799 32.1438C129.005 32.2005 129.044 31.9589 129.193 31.9079C129.25 31.9406 129.307 31.9734 129.364 32.0061C129.225 32.4459 128.765 32.8007 129.011 33.3425C129.163 33.8628 129.578 33.5617 129.879 33.6198C129.916 33.9669 130.163 34.0893 130.458 34.1607C130.692 34.2174 130.768 34.0648 130.792 33.8838C130.804 33.7923 130.751 33.569 130.662 33.6633C130.096 34.2618 130.198 33.3162 129.893 33.3492L129.911 33.4224C129.896 33.4094 129.881 33.3963 129.866 33.3833C129.875 33.372 129.884 33.3605 129.893 33.3492C129.912 33.1979 129.974 33.0748 130.119 33.0067C130.408 33.0265 130.667 33.4066 130.984 33.0786C131.215 33.0819 131.425 32.833 131.67 33.0236L131.677 33.022C131.896 33.453 132.199 33.4831 132.566 33.2098C132.768 33.3868 132.971 33.2963 133.175 33.2141C133.536 33.2113 133.687 33.0779 133.483 32.7213C133.744 32.7574 133.869 32.448 134.068 32.4433C135.225 32.4157 135.222 32.4267 135.738 31.663C135.767 31.6199 135.905 31.6631 135.982 31.6372C136.17 31.574 136.449 31.5459 136.522 31.4115C136.875 30.7591 137.143 30.0436 138.046 29.9894C137.973 29.6495 138.312 29.5152 138.393 29.2854C138.463 29.0894 137.992 28.9457 138.052 28.6181ZM124.957 16.0456C124.939 16.0642 124.921 16.0832 124.908 16.1074C124.905 16.0904 124.898 16.0779 124.897 16.0594C124.917 16.0548 124.937 16.0502 124.957 16.0456ZM121.582 30.0505C121.566 30.0181 121.564 29.9855 121.58 29.9525C121.588 29.9236 121.602 29.907 121.619 29.8958C121.598 29.943 121.586 29.9946 121.582 30.0505ZM119.305 24.7162C119.305 24.718 119.306 24.7187 119.307 24.7204C119.304 24.7208 119.302 24.7212 119.299 24.7217C119.301 24.7198 119.303 24.7182 119.305 24.7162ZM118.815 28.2152L118.821 28.2263C118.818 28.2272 118.814 28.2276 118.811 28.2285C118.812 28.2241 118.814 28.2194 118.815 28.2152ZM123.177 31.4314C123.176 31.4331 123.177 31.4349 123.176 31.4366C123.172 31.4358 123.168 31.4332 123.163 31.4324C123.168 31.4322 123.172 31.4312 123.177 31.4314ZM128.123 30.0355C128.128 30.0364 128.134 30.0357 128.139 30.037C128.138 30.0325 128.136 30.028 128.135 30.0235C128.144 30.0271 128.152 30.0276 128.161 30.0302C128.151 30.0476 128.139 30.0625 128.128 30.0775C128.126 30.0623 128.127 30.0518 128.123 30.0355ZM123.672 16.3933C123.723 16.548 123.761 16.7183 124.029 16.6192C124.107 16.8559 124.139 17.1236 124.43 17.2175C124.43 17.2174 124.43 17.2176 124.43 17.2175C124.538 17.246 124.647 17.2747 124.755 17.3032C124.788 17.8523 125.124 17.4182 125.309 17.4737C125.305 17.5895 125.302 17.7053 125.298 17.8211L125.297 17.874C125.174 17.9139 125.051 17.9538 124.928 17.9937C124.764 17.9643 124.574 18.015 124.456 17.842C124.373 17.7208 124.282 17.7033 124.188 17.8273C124.11 17.929 124.077 18.0917 124.199 18.1199C124.931 18.2906 124.626 19.0379 124.949 19.4295C125.167 19.5485 125.078 19.7758 125.134 19.9522C124.897 20.2329 124.946 20.4231 125.311 20.5142L125.308 20.4447C125.314 20.4459 125.32 20.4476 125.326 20.4489C125.321 20.4707 125.316 20.4925 125.311 20.5142C125.42 20.661 125.571 20.6857 125.739 20.6605C125.59 21.0429 125.604 21.3037 126.131 21.2032C126.262 21.1782 126.4 21.1865 126.535 21.1795C126.527 21.202 126.507 21.2285 126.513 21.2462C126.527 21.2857 126.553 21.3207 126.574 21.3575C126.569 21.5257 126.366 21.6959 126.338 21.6533C126.13 21.3388 125.991 21.336 125.774 21.6536C125.505 22.0476 126.181 21.919 126.052 22.2116C126.014 22.221 125.996 22.2451 125.997 22.2842C125.3 22.5182 126.159 22.752 125.997 22.9859C125.957 23.1071 125.917 23.2284 125.878 23.3496C126.03 23.3408 126.182 23.332 126.333 23.3231C126.304 23.7696 126.626 23.6734 126.883 23.6795C126.887 23.6755 126.887 23.672 126.891 23.6682C126.894 23.6718 126.898 23.6753 126.902 23.6788C126.892 23.6795 126.883 23.6801 126.874 23.6808C126.731 23.732 126.661 23.8335 126.665 23.9856C126.669 23.9962 126.678 23.9994 126.683 24.0087C126.382 24.0484 126.115 24.1318 126.052 24.4787C126.002 24.4868 125.952 24.4948 125.904 24.4993C125.309 25.1063 125.35 25.4159 126.121 26.1206C125.919 26.0798 125.701 25.8713 125.522 26.1928C125.663 26.4013 125.877 26.4182 126.083 26.451C126.091 26.4999 126.103 26.5483 126.121 26.5958C126.156 26.6901 126.197 26.7813 126.247 26.8676C126.11 26.9153 126.109 27.0219 126.176 27.1581C125.956 27.3424 125.801 27.5931 125.555 27.7564C125.244 27.9627 125.156 28.2438 125.397 28.5722C125.405 28.5803 125.415 28.5829 125.423 28.5903L125.404 28.5994C125.101 28.6581 124.935 28.8269 124.96 29.1501C125.056 29.6327 124.472 29.6652 124.382 30.025C124.165 30.1379 124.179 30.3129 124.423 30.5502C124.228 30.8487 124.066 30.6245 123.898 30.5169C123.767 30.2979 123.553 30.391 123.368 30.3762C123.381 29.6958 123.051 29.7817 122.64 30.0503C122.455 29.9423 122.423 29.6315 122.131 29.6654C121.934 29.2433 121.446 29.9699 121.283 29.4547C121.061 28.758 120.934 29.5959 120.751 29.4828C120.71 29.4268 120.669 29.4229 120.627 29.4357C120.704 28.8575 120.366 28.3789 120.233 27.8516C120.162 27.5713 119.932 27.5464 119.694 27.5837C119.805 27.5091 119.9 27.4184 119.931 27.2671C119.933 27.253 119.925 27.2404 119.925 27.2265C120.037 27.2769 120.07 27.5344 120.248 27.3777C120.296 27.3352 120.318 27.2032 120.289 27.1435C120.198 26.9595 120.039 27.0056 119.888 27.028C119.874 27.013 119.854 27.0086 119.839 26.9958C119.84 26.9956 119.842 26.9951 119.843 26.9948C119.737 26.8652 119.604 26.8054 119.436 26.8325C119.476 26.7246 119.523 26.6237 119.661 26.6187C119.83 26.6804 120.096 26.6852 120.118 26.56C120.17 26.2594 119.866 26.3409 119.693 26.2886L119.493 25.6404C119.732 25.6119 119.952 25.5594 119.99 25.2646C119.993 25.2069 119.996 25.1492 119.999 25.0915C120.057 24.8619 119.95 24.5906 120.155 24.3976C120.196 24.4075 120.239 24.4146 120.289 24.41C120.738 24.0213 120.197 23.696 120.214 23.3361C120.9 23.1943 121.219 22.5634 120.917 21.974C120.919 21.9578 120.927 21.9411 120.925 21.9252C121.174 21.9285 121.246 21.7421 121.312 21.5493C121.31 21.505 121.299 21.4715 121.289 21.4357C121.493 21.1825 121.557 20.929 121.237 20.6745C121.198 20.6416 121.16 20.6087 121.122 20.5759C121.146 20.5655 121.173 20.5603 121.196 20.5481C121.464 20.3787 121.806 20.1965 121.77 19.8622C121.738 19.5586 121.425 19.5939 121.173 19.6222C121.381 19.5077 121.588 19.3932 121.796 19.2788C122.284 19.379 122.148 18.9093 122.311 18.7132C122.543 18.3551 122.775 17.9971 123.007 17.639C123.025 17.526 123.042 17.4129 123.06 17.2999C123.488 17.4872 123.347 17.1759 123.36 16.9994C123.57 16.8543 123.571 16.5978 123.672 16.3933ZM123.183 31.4399C123.187 31.4395 123.191 31.4406 123.195 31.4405C123.194 31.4455 123.192 31.4505 123.191 31.4555C123.187 31.4501 123.187 31.4453 123.183 31.4399Z" fill="#FFFFF5"/>
<path d="M109.767 33.9154C109.716 33.623 109.365 33.7885 109.258 33.5815C109.157 32.9481 108.978 32.4317 108.173 32.8651C108.147 32.8191 108.11 32.8062 108.061 32.8262C107.995 32.6518 108.168 32.3782 107.847 32.31C107.84 32.0054 107.749 31.7452 107.467 31.5852C107.408 31.1648 106.884 31.3789 106.752 31.0596C106.607 30.8461 107.088 30.6254 106.745 30.4142C106.461 30.2583 106.178 30.1024 105.894 29.9465C105.845 29.7405 105.667 29.8383 105.546 29.7994C105.545 29.7413 105.53 29.6873 105.501 29.637C105.197 29.4914 105.807 28.9201 105.172 28.9288C105.177 28.5174 104.865 28.6393 104.642 28.6124C104.283 28.059 103.989 27.9445 103.759 28.2689C103.105 28.3607 102.73 28.0933 102.67 27.4209C102.682 27.2142 103.17 27.142 102.898 26.9155C102.635 26.6959 102.467 27.0016 102.344 27.227C102.173 27.1718 102.006 27.2635 101.814 27.0726C101.426 26.6883 101.658 26.1079 101.294 25.7493C101.296 25.6507 101.298 25.552 101.3 25.4533C101.297 25.1987 101.091 25.076 100.968 24.8937C100.69 24.4811 100.114 24.5979 99.859 24.1925C99.8977 24.0294 99.9764 23.7453 99.8447 23.7267C99.2044 23.6362 99.5687 23.2387 99.5638 22.9513C99.562 22.8397 99.5327 22.7286 99.516 22.6173C99.5372 22.5734 99.5423 22.5277 99.5309 22.4803C99.5308 22.4804 99.531 22.4802 99.5309 22.4803C99.7085 22.4595 99.8863 22.4388 100.064 22.4184C100.2 22.4946 100.323 22.7196 100.495 22.532C100.745 22.2617 100.452 21.996 100.44 21.7246C100.629 21.3898 100.978 21.2956 101.303 21.2242C101.752 21.1255 101.567 20.8927 101.479 20.6608C101.925 20.4407 102.578 20.325 102.016 19.5961L102.083 19.62L102.152 19.6056C102.364 19.6169 102.616 19.7346 102.696 19.399C102.961 19.2051 103.312 19.0993 103.391 18.7168C103.562 18.7308 103.695 18.6829 103.74 18.497C103.747 18.3897 103.754 18.2825 103.761 18.1753C104.145 18.1918 104.048 17.5912 104.453 17.635C104.832 17.6743 105.027 17.5052 105.033 17.1226C105.525 17.25 105.454 16.8563 105.523 16.5928C105.592 16.5484 105.66 16.504 105.729 16.4595C106.073 16.4687 106.45 16.5282 106.415 15.9846C106.396 15.6809 106.734 15.6072 106.822 15.3704C107.011 14.9077 107.552 14.3393 106.271 14.2001C106.781 14.5238 106.833 14.8176 106.576 15.1427C106.376 14.4423 106.155 15.2487 105.914 15.1331C105.15 14.7663 105.069 15.6121 104.658 15.8785C104.565 15.8728 104.473 15.867 104.38 15.8613C104.237 15.8713 104.094 15.8813 103.951 15.8913C103.769 15.793 103.587 15.6894 103.403 15.8878L102.353 17.1202C101.724 17.4674 101.656 18.0985 101.547 18.7095C101.536 18.7675 101.536 18.8255 101.546 18.8835C101.46 19.0607 101.375 19.238 101.289 19.4152C100.98 19.5815 100.622 19.6983 100.56 20.1202C100.255 20.097 99.8286 19.5791 99.7145 20.3289C99.7947 20.666 99.4418 20.6171 99.3203 20.7732C99.0391 21.1346 99.3991 20.9894 99.5252 21.0287C99.5034 21.0862 99.506 21.1427 99.5328 21.198C99.563 21.3664 99.6382 21.5574 99.3492 21.5665C99.1696 21.5726 98.9901 21.5786 98.8106 21.5847C98.3502 21.5128 98.8348 21.0014 98.4829 20.8792C98.5096 20.7472 98.5314 20.6178 98.5413 20.4947C98.7269 19.1879 99.096 17.9193 99.3663 16.6302C99.8156 16.1905 99.5052 15.4736 99.9482 15.0316L100.062 14.8404C100.274 14.4386 100.522 14.0513 100.584 13.5866C100.614 13.3279 101.103 12.9526 100.405 12.8787C100.184 12.5981 99.8935 12.4792 99.5411 12.5014C98.9558 12.6022 99.4817 12.987 99.3611 13.2066C99.3568 13.2734 99.3525 13.3402 99.3481 13.407C99.0663 13.3081 98.9114 13.6449 98.6428 13.6103C98.495 13.5913 98.4316 13.7307 98.4594 13.8278C98.507 13.9931 98.6925 13.9364 98.8188 13.9764C98.8255 14.0385 98.8323 14.1006 98.839 14.1627C98.8475 14.2045 98.8572 14.246 98.8684 14.2872C98.7964 14.3997 98.7245 14.5122 98.6526 14.6247C98.5404 14.8322 98.393 14.6684 98.2605 14.662C97.952 14.7944 97.7974 15.0078 97.8966 15.3548C97.4949 15.3215 96.8157 14.9601 97.2431 15.908C97.0885 16.05 96.9339 16.192 96.6822 16.4232H97.911C97.8576 16.5443 97.8041 16.6654 97.7508 16.7864L97.749 16.8573C97.702 16.8878 97.653 16.9147 97.6021 16.9376C97.336 16.7834 97.0583 16.5973 97.0456 17.1401L97.0443 17.4596C97.1657 17.7005 97.2871 17.9414 97.4086 18.1822C97.3644 18.5502 96.9371 18.2706 96.7618 18.4972C97.1357 18.8202 97.6926 18.4649 97.9285 18.949C97.9285 18.949 97.9307 18.9938 97.9309 18.9938C97.6135 19.0687 97.0119 18.8827 97.3837 19.5905C96.9336 19.7092 96.9607 20.1852 96.7283 20.4671C96.5548 20.274 96.3149 20.1525 96.1169 20.3345C95.7927 20.6325 96.3418 20.6325 96.3387 20.8448C96.337 20.9592 96.3617 21.0738 96.3744 21.1883C96.258 21.3443 96.0368 21.4594 96.1702 21.7128C96.1675 21.8118 96.1648 21.9108 96.1621 22.0098C95.8834 22.2685 95.9633 22.5171 96.1832 22.7616C96.1832 22.7616 96.1833 22.7616 96.1832 22.7616C96.4623 22.8868 97.048 22.6216 96.8836 23.312C96.7566 23.316 96.6296 23.3199 96.5027 23.3239C96.2824 23.3342 96.0977 22.9578 95.8504 23.264C95.9019 23.5382 95.2319 24.1517 96.1947 23.997C96.3973 24.2141 95.913 24.7099 96.5071 24.7682C96.4949 24.822 96.504 24.8719 96.5341 24.9179C96.2661 25.4632 97.0526 25.2736 97.0381 25.6423C97.0262 25.6813 97.0325 25.7169 97.0571 25.7494C96.8949 25.7927 96.5914 25.8419 96.5929 25.8784C96.6041 26.1494 96.8412 26.1466 97.0445 26.1687C96.9569 26.3351 96.8067 26.5018 97.0467 26.667C96.4367 27.1113 97.0841 27.9709 96.4705 28.4141C96.3777 28.4014 96.3101 28.4148 96.346 28.5349C96.1123 28.6112 96.2365 28.1394 96.0645 28.2993C95.842 28.5062 95.9609 28.7714 96.1878 28.9596C96.0943 29.5739 95.8014 30.2913 96.8799 30.3025C96.8869 30.3026 96.8933 30.3559 96.9 30.3843L96.8473 30.3612C96.7262 30.3777 96.6051 30.3941 96.484 30.4105C96.3773 30.392 96.2216 30.3197 96.1909 30.4631C96.1409 30.6973 96.3032 30.8213 96.5177 30.8772C96.5167 31.0023 96.5156 31.1275 96.5147 31.2526C96.3642 31.1873 96.2416 30.972 96.0588 31.0901C95.8819 31.2042 95.9467 31.477 96.0277 31.5522C96.3168 31.821 96.2612 32.2372 96.4991 32.5143C96.6098 33.0701 95.8708 32.6096 95.869 33.0366C96.1386 33.2725 96.4157 32.9953 96.6843 33.0578C96.7664 33.301 97.0661 33.1143 97.1834 33.3183C96.9903 33.433 96.7982 33.5472 96.5989 33.6656C96.6846 33.9053 97.5058 34.048 96.7083 34.4111C96.5794 34.0666 96.408 33.9292 96.0934 34.2505C95.7859 34.5644 95.9828 34.6359 96.2708 34.7539C96.4386 34.8227 96.5536 35.0201 96.6925 35.1596C96.6374 35.2212 96.5825 35.2829 96.5274 35.3445C96.331 35.2893 96.1439 34.9491 95.946 35.2249C95.8037 35.4233 95.984 35.6642 96.1412 35.8458C95.9369 35.9924 95.703 36.2102 96.1544 36.2471C96.5348 36.2781 96.7376 36.4608 96.9266 36.7189C96.9266 36.7263 96.9242 36.7314 96.9247 36.7393C96.9258 36.7399 96.9543 36.7538 96.9543 36.7538C96.9548 36.7478 96.9579 36.744 96.9586 36.7381C97.225 36.7269 97.4803 36.7244 97.236 37.115C97.7242 37.3071 98.071 37.414 98.1935 36.625C98.3001 35.9382 98.2691 35.2574 98.3112 34.5803C98.42 32.8302 98.7785 31.0825 98.4713 29.3191C98.69 29.0677 98.4323 28.8173 98.4639 28.5919C98.5328 28.1019 98.4048 27.4491 99.1784 27.3491L99.1591 27.3856C99.3129 27.6508 98.7543 27.8523 99.0949 28.1345C99.4436 27.9774 99.2495 27.6264 99.3596 27.384C99.9825 27.2157 100.214 27.7301 100.547 28.0664C100.498 28.1401 100.45 28.2138 100.402 28.2875C100.184 28.2988 99.9531 28.0699 99.7528 28.3107C99.7086 28.3638 99.6868 28.5129 99.7194 28.5401C99.9204 28.7077 100.149 28.6382 100.371 28.5753C100.453 28.6418 100.535 28.7084 100.617 28.775C100.458 29.0198 100.45 29.2781 100.711 29.4225C100.87 29.5107 100.922 29.3092 100.942 29.1667L101.017 29.1674L101.088 29.1416C101.196 29.3915 101.487 29.3412 101.657 29.4889C101.719 29.7189 101.314 29.6116 101.394 29.8547C101.197 29.9191 100.866 29.6624 100.854 29.8153C100.832 30.0918 100.864 30.4809 101.291 30.5594L101.365 30.5747C101.365 30.5747 101.439 30.5612 101.439 30.5611C101.633 31.0226 102.015 30.7636 102.322 30.7924C102.225 31.125 102.652 31.052 102.695 31.2764C102.696 31.4384 102.708 31.5932 102.917 31.6219C102.913 31.8543 103.094 31.7441 103.199 31.7745C103.284 31.7851 103.368 31.7958 103.452 31.8065C103.388 32.2284 103.346 32.6465 103.629 33.0438C103.846 32.8743 103.953 32.5706 104.276 32.6829C103.923 33.7501 104.797 32.7879 104.923 33.1261C104.939 33.4124 104.723 33.7702 104.993 34.0923C105.17 34.5471 105.706 33.9724 105.89 34.405C105.896 34.5245 105.961 34.5909 106.076 34.6124C106.449 34.789 106.69 35.2947 107.272 34.9593C107.446 34.8591 107.953 35.0377 107.889 35.5218C107.835 35.9424 107.961 36.1655 108.426 36.0782C108.687 36.0293 108.667 36.3883 108.885 36.4069C109.034 36.5554 109.08 36.9613 109.424 36.6225C109.726 36.8209 109.901 36.7497 109.939 36.3931C109.946 36.3906 109.952 36.3904 109.959 36.3871C109.958 36.3806 109.955 36.3778 109.954 36.3714C110.339 36.2591 110.373 36.0336 110.351 35.6283C110.316 34.9795 109.6 34.6013 109.767 33.9154ZM104.808 16.7523C104.809 16.7528 104.809 16.7533 104.81 16.7537C104.809 16.7535 104.809 16.7532 104.808 16.7529C104.808 16.7527 104.808 16.7526 104.808 16.7523ZM98.7067 26.0116C98.7049 26.0132 98.7032 26.0148 98.7014 26.0165C98.7012 26.0143 98.701 26.0122 98.7008 26.01C98.7029 26.0103 98.7045 26.0112 98.7067 26.0116ZM98.3181 26.7814C98.3199 26.7827 98.3216 26.7841 98.3233 26.7855C98.3155 26.7886 98.3088 26.7877 98.3009 26.7912C98.3064 26.7873 98.3125 26.785 98.3181 26.7814ZM106.026 31.4196C106.016 31.3992 106.002 31.3772 105.987 31.3549C105.992 31.353 105.998 31.3517 106.003 31.35C106.019 31.3769 106.027 31.4005 106.026 31.4196ZM98.2888 16.1296C98.286 16.1243 98.286 16.1185 98.2835 16.1132C98.2882 16.1175 98.2914 16.1223 98.2963 16.1265C98.2938 16.1275 98.2913 16.1286 98.2888 16.1296ZM99.2768 16.3808C99.2863 16.369 99.2958 16.3572 99.3055 16.3454C99.3085 16.3597 99.3116 16.374 99.3147 16.3882C99.3022 16.386 99.2886 16.3819 99.2768 16.3808ZM97.0816 25.9207C97.0843 25.9208 97.0863 25.9232 97.0892 25.9233C97.0865 25.9237 97.0837 25.9247 97.081 25.9252C97.0812 25.9237 97.0813 25.9223 97.0816 25.9207Z" fill="#FFFFF5"/>
<path d="M41.6107 31.2589C41.1519 31.0575 40.6695 30.6307 40.3521 31.4332C39.8025 31.806 39.6068 32.4732 39.129 32.9058C38.8671 32.9415 39.0913 32.4515 38.7759 32.5695C38.5798 32.6429 38.5975 32.8488 38.5811 33.0214C37.7851 33.3457 36.9679 33.398 36.1322 33.2127C36.0725 33.2025 36.0127 33.1923 35.9529 33.1822C36.293 32.9225 36.5199 32.6054 36.4731 32.1503C36.8176 32.0532 36.9832 31.8987 36.654 31.5856C36.344 31.3652 36.0341 31.1448 35.724 30.9244C35.4328 30.6973 35.8764 30.5851 35.807 30.3928C36.0667 30.4336 36.1315 30.1956 36.2726 30.0668C36.2232 29.9405 36.1739 29.8141 36.1245 29.6878C36.2952 29.1226 35.7006 29.5098 35.6081 29.2722C35.5838 29.1697 35.526 29.1222 35.4183 29.1563C35.2779 29.0371 35.5143 28.6412 35.1005 28.7229C34.7927 27.8936 35.7058 28.4994 35.7924 28.1335C36.0238 28.0221 36.2687 27.8537 35.8212 27.7651C35.564 27.7141 35.3939 27.7083 35.3843 27.4141C35.4795 27.1418 35.6863 26.9862 35.9408 26.8801C36.3643 26.9744 36.4193 26.9354 36.3131 26.786C36.1155 26.5079 36.1167 26.3033 36.3137 26.0231C36.5349 25.7086 36.1881 25.5985 36.0211 25.4335C35.7376 25.3684 36.1231 24.7634 35.5907 24.8991C35.3128 24.6433 34.754 24.7389 34.7085 24.1927C34.701 24.0105 34.6934 23.8284 34.686 23.6463C34.6362 23.5914 34.5865 23.5366 34.5368 23.4817C34.597 23.3687 34.6572 23.2558 34.7175 23.1429C34.9515 23.1603 34.8532 23.5811 35.1604 23.5096C35.2566 23.6452 35.1231 23.9353 35.3733 23.9307C35.4692 23.9289 35.7404 23.9277 35.751 23.7123C35.7586 23.5598 35.6066 23.4932 35.4638 23.4617C35.1815 23.3063 35.3465 23.1319 35.4427 22.9604L35.5262 22.9637L35.6076 22.945C35.7742 22.9907 35.9672 23.0623 36.036 22.8302C36.0961 22.6277 35.9395 22.5973 35.7795 22.6069C35.6581 22.4373 35.5367 22.2678 35.4153 22.0982L35.4143 22.0758C35.8242 21.8965 36.0019 21.7172 35.4146 21.5374C35.4113 21.413 35.4081 21.2887 35.4047 21.1644C35.3961 21.184 35.3821 21.1956 35.3661 21.2041C35.3784 21.1902 35.3947 21.181 35.4047 21.1644C35.511 20.8078 34.6738 20.7547 35.1234 20.2878C34.7635 20.1321 34.3879 20.0817 33.9991 20.119C33.3178 20.4348 32.6059 20.4294 31.8842 20.3205C31.8828 20.2539 31.8812 20.1872 31.8796 20.1206C31.6239 19.4782 31.095 19.8444 30.6787 19.7947C30.5029 19.8502 30.3265 19.9053 30.2918 20.1259C29.1318 19.9085 28.0965 20.2529 27.1136 20.8331C26.7425 20.5817 26.7585 20.9194 26.7348 21.1074C26.681 21.5363 26.3941 21.7345 26.0447 21.889C25.6087 22.1232 25.5614 22.4909 25.6909 22.9195C25.4596 22.9963 25.2284 23.0731 24.9971 23.1499C24.953 23.0333 24.8323 22.934 24.7509 22.9935C24.5091 23.1699 24.5697 23.4243 24.6512 23.6673C24.6462 23.7832 24.6411 23.8991 24.6359 24.015C24.5724 24.0189 24.509 24.0228 24.4453 24.0266C24.1239 24.2376 23.9534 24.5801 23.8173 24.904C23.6908 25.2055 23.9686 25.0732 24.1073 25.066C24.1082 25.0737 24.105 25.0788 24.1062 25.0868C24.1078 25.0862 24.1093 25.0867 24.1109 25.0862L24.0788 25.3421C23.9286 25.5212 23.2506 25.1571 23.5788 25.8286C23.5732 25.868 23.5728 25.9074 23.5777 25.947C23.5212 26.2385 23.0337 26.3014 23.1383 26.6265C23.2563 26.9933 23.7033 26.9279 23.9598 26.9343C24.4551 26.9466 24.6345 27.0553 24.4521 27.5439C24.225 27.5255 24.1579 27.1246 23.9007 27.2618C23.6227 27.4102 24.042 27.5767 23.944 27.7559C23.5816 27.7366 23.219 27.7172 22.8566 27.6979C23.5117 28.1048 22.9126 28.4338 22.8351 28.7723C22.7908 28.9544 22.7465 29.1365 22.7021 29.3186L22.6699 29.2969C22.52 29.2834 22.2559 29.2229 22.239 29.2642C22.1364 29.514 22.5257 29.465 22.5314 29.678C22.505 29.7353 22.4786 29.7927 22.4521 29.8501C22.2606 29.8211 22.0671 29.7825 21.9172 29.946C22.2374 30.4274 22.647 29.9976 23.0081 30.0636L23.0591 30.0097C23.0601 30.0099 23.061 30.0101 23.0621 30.0101C23.044 30.0279 23.0261 30.0457 23.0081 30.0636C22.9628 30.2319 22.9174 30.4001 22.872 30.5684C22.5804 30.619 22.2887 30.6698 21.9969 30.7204C21.7426 30.5185 21.6419 30.7165 21.6329 30.9053C21.6205 31.1663 21.833 31.0852 21.9869 31.0641C22.0462 31.0651 22.1056 31.066 22.1649 31.067C22.1662 31.1315 22.1674 31.1961 22.1686 31.2607C21.5894 31.5712 21.4042 32.4828 21.8063 33.045C21.787 33.0948 21.7903 33.1431 21.8164 33.1898C21.4175 33.2718 21.3653 33.4542 21.6583 33.7366C21.2955 34.0576 21.6851 34.1194 21.8391 34.2624C21.8044 34.3811 21.737 34.5003 21.8439 34.6171C21.6844 34.9555 21.6989 35.1918 22.164 35.1643C22.2277 35.3414 22.2916 35.5185 22.3554 35.6957C22.4271 35.849 22.1277 36.3075 22.6676 36.0759C22.7239 36.1317 22.78 36.1875 22.8363 36.2433C22.7115 36.53 22.6996 36.783 23.0411 36.9305C23.157 37.1892 23.4057 37.0288 23.5805 37.1015C23.5519 37.1545 23.5507 37.2081 23.5769 37.2623C23.3765 37.6324 24.0431 37.5935 23.8953 37.9387C23.8037 38.0324 23.6234 38.1963 23.6335 38.2092C23.8211 38.4462 24.0721 38.2927 24.3018 38.2939C24.6422 38.3104 24.9827 38.3269 25.3233 38.3435C25.1966 38.6108 25.187 38.8262 25.5664 38.8382C25.8467 38.8471 26.1275 38.8392 26.4081 38.8388C26.7041 39.121 26.4711 39.4568 26.4825 39.8816C26.9137 39.39 27.3723 39.9818 27.789 39.7038C27.9918 39.6295 28.1131 40.1727 28.3582 39.7792C28.5051 39.714 28.8161 39.7938 28.7758 39.589C28.7264 39.3381 28.4986 39.5818 28.3483 39.5798C28.292 39.516 28.2358 39.4523 28.1797 39.3885C28.2363 39.0229 28.7447 38.8866 28.7894 38.9338C29.2261 39.396 29.317 38.8091 29.5551 38.715C30.2268 38.4494 30.3876 37.1617 31.5076 37.7545C31.677 37.8442 31.539 37.626 31.5578 37.5587C31.6475 37.2374 32.2205 36.8467 32.5812 36.8855C32.8579 36.9153 32.9617 36.8288 32.9515 36.5665C33.1457 36.3177 33.4156 36.4419 33.6564 36.4233C33.7231 36.4737 33.7899 36.5241 33.8567 36.5744C34.0989 36.9551 34.399 37.2051 34.8868 37.032C35.2735 37.2951 35.6067 37.4328 35.5829 36.7344C35.6882 36.4657 36.0582 36.6745 36.166 36.4106C36.631 36.1054 37.2344 36.3155 37.6962 35.9986C37.9267 35.8772 38.3236 35.9242 38.265 35.501C38.2304 35.2506 37.979 35.4012 37.8384 35.3362C37.8135 35.1549 37.7336 34.9392 38.0617 34.9791C38.873 35.5792 38.5194 34.5934 38.7833 34.4484C38.953 34.4936 39.0805 34.6911 39.2909 34.5893C39.7664 34.6172 40.034 34.4209 40.0155 33.9162C40.7128 33.7098 41.0858 33.2107 41.2614 32.5334C41.3956 32.25 41.5434 31.9719 41.658 31.6807C41.7094 31.5501 41.8813 31.3776 41.6107 31.2589ZM26.687 37.6997C26.7121 37.709 26.7391 37.7107 26.7647 37.7183C26.7336 37.7171 26.7024 37.7168 26.6712 37.7155C26.6765 37.7102 26.6817 37.7049 26.687 37.6997ZM23.4124 35.528C23.4153 35.5242 23.4163 35.5187 23.419 35.5147C23.4218 35.5172 23.4245 35.5197 23.4272 35.5221L23.4325 35.5341C23.4258 35.5321 23.419 35.53 23.4124 35.528ZM23.2496 35.8478C23.2502 35.8466 23.252 35.8475 23.2526 35.8463C23.2519 35.8476 23.2511 35.8488 23.2504 35.8502C23.2501 35.8494 23.2499 35.8485 23.2496 35.8478ZM23.7445 35.6303C23.7446 35.633 23.745 35.6356 23.7453 35.6383C23.7431 35.6372 23.7414 35.6354 23.7392 35.6344C23.741 35.6331 23.7427 35.6317 23.7445 35.6303ZM22.6908 30.888C22.6839 30.8874 22.677 30.8868 22.6701 30.8862C22.6738 30.8804 22.6775 30.8745 22.6812 30.8687C22.6834 30.8748 22.688 30.8817 22.6908 30.888ZM30.3499 35.8763C30.1544 35.8566 29.9501 36.0776 29.8546 36.3064C29.855 36.3657 29.8423 36.4094 29.8243 36.4467C29.6838 36.5076 29.5001 36.5078 29.4343 36.6736C29.4244 36.6789 29.4136 36.6833 29.4044 36.6894C29.3558 36.7519 29.3287 36.8223 29.3215 36.901C29.3232 36.9322 29.3257 36.9636 29.328 36.995C29.2884 37.0344 29.2487 37.0737 29.2091 37.1131L29.0126 37.2553C28.791 37.3947 28.4374 37.4375 28.4687 37.762C28.4609 37.762 28.4531 37.7621 28.4453 37.7622C27.9596 37.7477 27.473 37.7402 26.9859 37.725C27.2897 37.6916 27.6472 37.7128 27.696 37.313C27.7408 36.9466 27.3744 37.0028 27.128 36.9827C27.1187 36.9836 27.1097 36.9867 27.1004 36.988C27.0301 36.7337 26.7975 36.915 26.6313 36.9182C26.6568 36.8925 26.6749 36.8686 26.6617 36.8526C26.6772 36.3297 26.2297 36.26 25.8933 36.0817C25.6854 36.0193 25.4781 36.0086 25.2699 36.0802C25.1682 36.0876 25.0726 36.0738 25.0001 35.9784C25.0726 35.9599 25.1449 35.9415 25.2174 35.9231C25.3108 35.9256 25.4042 35.9268 25.4983 35.9393C25.7459 35.9213 25.8473 35.7299 25.9712 35.5659C26.1307 35.7958 26.4076 35.7143 26.782 35.6275C26.5036 35.459 26.2585 35.5049 26.0957 35.3805C26.1166 35.3452 26.1419 35.3126 26.1574 35.2743C26.2639 34.933 26.0387 34.6675 25.952 34.371C26.1442 34.23 26.0725 34.1075 25.802 34.0897C25.5064 34.0702 25.3716 33.9688 25.3656 33.6829C25.3652 33.6834 25.3646 33.684 25.3643 33.6845C25.3648 33.6838 25.3651 33.6829 25.3656 33.6822C25.4213 33.6493 25.477 33.6164 25.5325 33.5833C25.5323 33.5832 25.5326 33.5833 25.5325 33.5833C25.8321 33.7104 26.3444 33.8294 26.3048 33.4629C26.2446 32.9068 26.7313 32.278 26.1469 31.7839C25.9353 31.1693 25.7316 31.5982 25.526 31.7885C25.4479 31.6729 25.3696 31.5573 25.2915 31.4417C25.2478 31.3299 25.204 31.2181 25.1603 31.1063C25.173 31.0229 25.1859 30.9397 25.1987 30.8563C25.4558 30.9821 25.659 30.8088 25.88 30.7335C25.9838 30.82 26.1027 30.9912 26.1881 30.9758C26.3794 30.9413 26.4291 30.7515 26.3821 30.5661C26.3091 30.277 26.0622 30.4065 25.8839 30.3713C25.3041 30.353 25.6892 29.5378 25.1524 29.4841C24.9366 29.4108 24.6321 29.1446 24.7138 29.6976C24.746 29.9153 24.5544 29.9654 24.4111 30.0444C24.3687 29.9384 24.3265 29.8323 24.284 29.7262C24.1168 29.7038 23.9497 29.6813 23.7825 29.659C24.1175 29.4431 24.6411 29.3728 24.4698 28.7665C24.4673 28.724 24.4632 28.6818 24.4576 28.6397C24.5627 28.5759 24.6678 28.5122 24.7729 28.4484C24.7539 28.8112 25.087 28.8022 25.2925 28.9176C25.3109 28.9279 25.4731 28.7676 25.4961 28.6695C25.5982 28.2354 25.0121 28.5931 25.0095 28.261C25.3646 28.1004 25.9805 28.2815 25.9146 27.5692C26.1228 27.5518 26.2059 27.4233 26.2159 27.2298C26.255 27.0553 26.4806 26.8837 26.2713 26.7052C26.2727 26.6882 26.2777 26.6748 26.2781 26.6567C26.1764 26.4928 26.0183 26.3767 25.8417 26.4464C25.3908 26.6243 25.5998 26.3759 25.6512 26.2337C25.7615 26.1159 25.8608 25.969 26.0732 26.1198C26.4516 26.1844 26.5696 25.9868 26.5476 25.6479C26.3875 25.2891 26.0559 25.6516 25.832 25.5612C25.9459 25.489 26.0488 25.4052 26.1208 25.2862C26.138 25.286 26.1456 25.275 26.1499 25.2605C26.2592 25.258 26.3539 25.2206 26.4193 25.1118C26.4131 25.1101 26.4103 25.105 26.4047 25.1026C26.4307 25.0927 26.456 25.0804 26.479 25.0616C26.4802 25.0603 26.4808 25.0587 26.4819 25.0575C26.6472 25.0984 26.8337 25.2183 26.9246 24.9865C27.0005 24.7929 26.8607 24.7182 26.6904 24.7073C26.6925 24.7027 26.695 24.6984 26.6969 24.6938C26.7107 24.4146 27.1557 24.3828 27.0935 24.0602C27.139 24.0228 27.1731 23.977 27.1882 23.9161C27.1887 23.8967 27.1846 23.8782 27.1836 23.8591C27.4202 23.8316 27.7799 23.9528 27.6454 23.4766C27.6455 23.456 27.6455 23.4354 27.6456 23.4147C27.8408 23.3142 28.0504 23.2254 27.996 22.9303C27.9867 22.884 27.9852 22.8491 27.9869 22.8192C28.112 22.7955 28.2723 22.8286 28.3311 22.6981C28.3576 22.6908 28.3809 22.6788 28.3948 22.6528C29.2322 22.1314 29.3491 22.1617 29.997 22.8679C30.4098 23.3179 30.5998 23.9318 31.0983 24.3129C31.1935 24.3455 31.2538 24.3919 31.2973 24.4447C31.3132 24.4664 31.329 24.4881 31.3447 24.5098C31.3755 24.5918 31.3609 24.6916 31.2982 24.8103C31.2349 24.9781 31.2147 25.1536 31.2707 25.3255C31.621 26.4005 31.5964 27.5145 31.6647 28.6257C31.7855 30.5891 31.6354 32.537 31.4841 34.4891C31.4304 34.6197 31.523 34.7618 31.5641 34.8997C31.546 34.9821 31.5352 35.0666 31.5273 35.152C31.5037 35.1797 31.473 35.2068 31.4297 35.2328C31.1027 35.4938 30.8997 35.9318 30.3499 35.8763ZM32.2961 36.5663H32.3252C32.3252 36.5866 32.3105 36.5836 32.2961 36.5663Z" fill="#FFFFF5"/>
<path d="M148.259 29.3079C148.254 29.3076 148.249 29.3101 148.244 29.3101C148.243 29.3165 148.24 29.3203 148.24 29.327L148.259 29.3079Z" fill="#FFFFF5"/>
<path d="M83.8019 17.7358C83.565 17.5227 83.3992 17.3218 83.6037 17.0343C83.1455 16.8172 82.5741 16.8204 82.5932 17.3749C82.6242 18.2742 83.4122 17.4139 83.8019 17.7358Z" fill="#FFFFF5"/>
<path d="M96.2314 37.5733C96.5179 37.3383 97.3961 38.296 97.2146 37.1137C96.4957 36.4304 96.528 37.3539 96.2314 37.5733Z" fill="#FFFFF5"/>
<path d="M97.2148 37.1134C97.2192 37.1177 97.2231 37.1205 97.2277 37.1249L97.2286 37.1261C97.2312 37.1219 97.2322 37.1189 97.2348 37.1148C97.2277 37.112 97.2213 37.1098 97.2141 37.1069C97.2145 37.1094 97.2145 37.111 97.2148 37.1134Z" fill="#FFFFF5"/>
<path d="M4.94573 20.9966C5.08773 21.3537 5.29351 21.3855 5.59836 21.1974C5.72269 21.1207 5.8952 21.0643 5.82608 20.897C5.71291 20.6229 5.47863 20.5552 5.19051 20.6187C5.02356 20.6555 4.84784 20.6523 4.676 20.6672C4.60305 20.554 4.35233 20.6263 4.39244 20.3957C4.39244 20.3958 4.39222 20.3952 4.39222 20.3952C4.68206 20.1434 5.12234 19.8877 4.36288 19.6707C4.33033 19.6614 4.33933 19.5067 4.32899 19.4197C4.69411 19.3705 5.07879 19.4142 5.40757 19.1925C5.5363 19.2142 5.72675 19.2672 5.67897 19.0532C5.62758 18.823 5.42674 18.8116 5.22846 18.9084C4.86595 18.9774 4.46172 18.6289 4.13121 19.0182C3.83859 19.0391 3.63436 19.2258 3.4218 19.3969C3.35519 19.5746 2.84023 19.6301 3.27302 19.9438C3.37775 20.764 3.96276 20.3793 4.39022 20.3897L4.31305 20.4237L4.38783 20.3967C4.36038 20.6608 4.08576 20.6545 3.94959 20.7991C4.19021 20.8013 4.42988 20.803 4.66944 20.8047C4.76461 20.8675 4.91128 20.9097 4.94573 20.9966Z" fill="#FFFFF5"/>
<path d="M8.35727 31.3035C8.13488 31.2202 7.90948 31.3098 7.78859 31.4407C7.54881 31.7002 7.52686 32.1359 7.65309 32.3712C7.79431 32.6344 7.96171 32.3371 8.04182 32.1497C8.35161 32.281 8.65722 32.4886 9.00351 32.2193C8.73128 31.9052 8.37455 31.9835 8.04621 31.9539C8.0786 31.7041 8.50167 31.6406 8.35727 31.3035Z" fill="#FFFFF5"/>
<path d="M185.526 31.9733C185.535 31.7937 185.991 31.6104 185.522 31.4347C185.536 31.3781 185.56 31.3252 185.591 31.276C185.731 31.2981 185.873 31.3019 185.962 31.1742C185.974 31.1574 185.869 31.058 185.818 30.9969C185.676 31.1373 185.287 30.7274 185.308 31.2271C184.618 31.1651 184.251 31.4447 184.338 31.9644C184.146 32.2391 183.87 32.1504 183.631 32.0944C183.115 31.9734 182.907 32.2032 182.88 32.6837L182.701 32.8554C182.66 32.8433 182.618 32.8352 182.575 32.8312C182.311 32.6503 181.944 32.6667 181.734 32.3731C181.495 32.0388 181.307 32.3487 181.105 32.4421L180.418 32.6772C180.331 32.6683 180.244 32.6593 180.157 32.6503C180.299 32.5322 180.44 32.4142 180.582 32.2961C180.933 32.1507 180.591 31.9606 180.614 31.7942C180.809 31.6874 180.931 31.566 180.79 31.3211C180.634 31.052 180.435 31.2819 180.261 31.2515C180.098 30.9617 179.93 30.6883 179.564 31.0256L179.545 30.9944C179.947 30.6538 179.634 30.2516 179.642 29.8771C179.918 29.7765 179.768 29.5847 179.692 29.4706C179.563 29.2755 179.39 29.443 179.236 29.4771C179.157 29.305 179.273 29.0766 179.081 28.9369C179.008 28.466 179.586 28.1352 179.361 27.6316C179.518 27.4353 179.927 27.4215 179.785 27.0071C179.691 26.7323 179.528 26.7534 179.323 26.8475C179.062 26.5066 178.776 26.7065 178.495 26.8089C178.487 26.6442 178.48 26.4795 178.472 26.3147C178.815 26.2898 179.193 26.2889 178.817 25.791C179.047 25.26 178.116 25.4119 178.299 24.9087C178.437 24.818 178.419 24.6781 178.415 24.5425C178.703 24.5831 178.822 24.4397 178.822 24.167C179.115 24.1348 179.424 24.3001 179.851 24.0238C179.483 23.9639 179.199 24.0013 178.998 23.8242L178.944 23.7838L178.891 23.8264C178.896 23.6904 178.732 23.5056 179 23.4452C179.194 23.5477 179.428 23.6123 179.497 23.3505C179.635 22.8305 178.999 23.2773 178.954 22.9504C178.972 22.5789 178.482 22.9308 178.467 22.6073C178.527 22.4873 178.586 22.3673 178.646 22.2473C178.972 22.195 179.252 22.0818 179.347 21.722C179.312 21.4609 179.922 21.3396 179.504 20.9953C179.563 20.8124 179.731 20.8467 179.865 20.8132C180.159 20.7554 180.198 20.4457 180.388 20.2848C180.476 20.1179 180.773 20.1177 180.746 19.8731C180.723 19.6749 180.537 19.7592 180.417 19.7359C180.387 19.5512 180.689 19.2278 180.207 19.2326C180.244 19.1144 180.171 19.0781 180.076 19.059C180.177 18.483 179.768 18.4004 179.36 18.3164C179.367 18.2227 179.374 18.1289 179.381 18.0352C179.531 17.7749 180.231 18.4694 180.058 17.6455C180.168 17.6253 180.279 17.6051 180.389 17.5849C180.511 17.787 180.533 18.056 180.782 18.1737C181.012 18.309 181.217 18.367 181.291 18.012C181.355 17.8979 181.42 17.7837 181.484 17.6695C181.549 17.3594 181.341 17.2253 181.119 17.1002C180.978 16.7418 180.691 16.7318 180.377 16.7879C180.072 17.0349 179.429 16.6115 179.349 17.306C179.347 17.4699 179.344 17.6338 179.342 17.7978C179.268 17.8645 179.195 17.9313 179.122 17.9981C179.017 18.0125 178.826 18.0168 178.823 18.0429C178.794 18.2894 178.984 18.4102 179.154 18.5368C179.152 18.5932 179.162 18.6475 179.183 18.6996C179.178 18.8107 179.172 18.9219 179.166 19.033C179.114 19.0498 179.065 19.072 179.018 19.0996C178.713 19.0737 178.431 19.0977 178.289 19.4302C178.344 19.4367 178.398 19.4452 178.453 19.4558C178.427 19.5654 178.412 19.6785 178.375 19.784C178.175 20.3581 178.464 20.0626 178.655 19.9437C178.936 20.0478 179.283 19.8441 179.524 20.1316C179.529 20.1916 179.534 20.2517 179.54 20.3118C179.48 20.5443 179.42 20.7768 179.361 21.0093C179.152 21.0818 178.84 20.9919 178.815 21.3552C178.701 21.4161 178.586 21.4771 178.472 21.5381C178.398 21.3508 178.631 21.1105 178.324 20.91C178.239 21.1245 178.162 21.3202 178.084 21.516C178.039 21.5187 177.997 21.5293 177.956 21.5481C177.892 21.5446 177.828 21.5411 177.763 21.5376C177.721 20.9841 177.421 20.7553 176.877 20.8337C176.64 20.8452 176.392 20.7954 176.167 20.8788C176.166 20.8734 176.164 20.8711 176.162 20.8649C176.14 20.7966 176.157 20.7504 176.218 20.7225C176.308 20.691 176.4 20.6631 176.49 20.6305C176.576 20.63 176.661 20.6269 176.747 20.628C176.854 20.6295 177.02 20.6857 177.007 20.5412C177.002 20.4903 176.962 20.4424 176.912 20.3954C177.009 20.3382 177.115 20.3088 177.23 20.295C177.446 20.2694 177.754 20.3045 177.758 20.0033C177.762 19.7307 177.513 19.6675 177.256 19.6771C177.027 19.6857 176.969 19.5441 177.022 19.3398C176.895 19.1818 176.546 19.4309 176.53 19.0705C176.824 18.9294 176.874 18.6066 177.047 18.3748C177.034 18.1783 177.119 17.9478 176.861 17.8361C176.457 17.7683 176.328 17.1698 175.823 17.2967C175.726 16.6911 176.573 17.3924 176.494 16.8042C176.167 16.6818 175.748 16.9381 175.477 16.5708C175.397 16.2437 174.974 16.5614 174.883 16.2544C174.88 16.0949 175.008 15.8897 174.816 15.7902C174.57 15.6621 174.676 16.1599 174.41 16.0569C174.164 15.6963 173.844 15.6034 173.394 15.563C171.92 15.4311 170.625 15.8134 169.377 16.5767C168.922 16.8548 168.5 16.9869 169.151 17.8712C168.023 17.1788 167.988 17.7803 167.86 18.361C167.808 18.5947 167.943 19.1998 167.624 19.0299C166.958 18.6746 167.231 19.2657 167.105 19.4208C166.98 19.5734 166.906 19.7666 166.809 19.942C166.445 19.9634 166.411 20.1989 166.457 20.4866C166.458 20.66 166.458 20.8334 166.459 21.0068C166.273 21.4023 166.088 21.7977 165.902 22.1933C165.567 22.4524 165.605 22.7038 165.918 22.9497C165.485 23.0985 165.468 23.3442 165.753 23.6599C165.639 24.0194 165.159 24.3767 165.747 24.7401C165.573 24.8998 165.368 25.052 165.613 25.31C165.568 25.5182 164.666 25.3429 165.358 25.8804C164.977 26.1545 165.678 26.633 165.189 26.8618C164.65 27.1135 165.203 27.2103 165.24 27.3784C164.977 27.5387 165.004 27.7911 165.03 28.0432C164.925 28.5221 164.82 29.0009 164.716 29.4798C164.764 29.7177 164.813 29.9556 164.861 30.1934C164.668 30.5937 165.42 31.1052 164.714 31.4452C164.528 31.5963 164.589 31.7338 164.762 31.8213C164.95 31.9165 165.077 31.8593 165.061 31.62C165.384 31.8641 165.747 31.766 166.102 31.7408C166.342 31.8423 166.34 31.2916 166.666 31.5477C166.933 31.7578 166.591 31.818 166.608 31.9562C166.486 32.0811 166.034 32.1762 166.571 32.3608C166.515 32.6456 166.438 32.9322 166.641 33.1951C166.755 33.1631 166.863 33.1166 166.969 33.0656C166.909 33.1554 166.778 33.2138 166.641 33.1951C166.659 33.4435 166.523 33.7306 166.821 33.9076L166.889 33.9254C166.889 33.9254 166.959 33.9219 166.959 33.9219C166.961 34.1349 167.168 34.1381 167.282 34.2359C167.541 34.3032 167.801 34.3705 168.06 34.4378C168.548 34.6653 169.002 34.5252 169.448 34.3083C169.484 34.4162 169.398 34.5392 169.651 34.5669C170.42 34.6514 171.065 34.3241 171.737 34.062C171.927 33.9618 172.117 33.8614 172.307 33.7611C172.475 33.624 172.738 33.5511 172.659 33.2446C173.23 32.9533 173.791 32.6483 174.199 32.132C174.572 31.4643 175.539 31.2004 175.483 30.2413C175.728 30.3563 175.943 30.2356 176.163 30.1543C176.402 30.1076 176.641 30.061 176.88 30.0144C176.501 30.3095 176.331 30.7638 176.439 31.1637C176.541 31.541 177.003 31.6244 177.404 31.6163C177.521 31.6715 177.637 31.7268 177.753 31.7819C177.753 31.7869 177.753 31.7924 177.753 31.7973C177.761 31.7982 177.767 31.7954 177.775 31.7962C177.775 32.0328 178.326 31.9355 178.09 32.3148C177.865 32.376 177.64 32.4373 177.415 32.4985C177.074 32.5377 176.992 32.6997 177.261 32.9268C177.558 33.1771 177.922 33.2626 178.312 33.1954L178.382 33.2001L178.451 33.1962C178.539 33.2076 178.626 33.219 178.713 33.2303C178.496 33.5828 178.595 33.7999 178.995 33.8879C179.166 34.033 178.381 34.5168 179.189 34.4366C179.526 34.4356 179.931 34.6049 180.065 34.0893C180.283 33.9818 180.095 34.5712 180.412 34.2914C180.53 34.278 180.647 34.2645 180.765 34.251C180.96 34.2463 181.138 34.7138 181.218 34.456C181.504 33.5351 182.234 34.1118 182.721 33.9189C183.08 33.8649 183.44 33.8108 183.799 33.7566C183.968 33.8093 184.147 33.9993 184.292 33.7214C184.422 33.0814 184.552 32.4416 184.682 31.8016C184.851 31.7423 185.02 31.683 185.189 31.6238C185.245 31.6788 185.3 31.7339 185.356 31.7889C185.063 31.9946 184.948 32.3027 185.137 32.5837C185.263 32.7719 185.658 32.7376 185.778 32.6075C186.042 32.3218 185.547 32.2192 185.526 31.9733ZM181.092 33.0295C181.096 33.0338 181.1 33.038 181.103 33.0423C181.097 33.0422 181.091 33.0416 181.085 33.0414C181.087 33.0375 181.089 33.0335 181.092 33.0295ZM178.117 23.1637C178.115 23.1635 178.113 23.1633 178.111 23.1631C178.112 23.1612 178.113 23.1595 178.114 23.1576C178.115 23.1599 178.116 23.1614 178.117 23.1637ZM178.557 27.2204C178.539 27.2265 178.52 27.2282 178.502 27.2312C178.503 27.2214 178.504 27.2117 178.505 27.2019C178.524 27.2125 178.539 27.213 178.557 27.2204ZM177.418 21.1457C177.404 21.1476 177.393 21.1513 177.38 21.1536C177.378 21.0969 177.352 21.0439 177.296 20.9957C177.349 21.0171 177.393 21.0589 177.418 21.1457ZM165.412 28.8377C165.412 28.8304 165.412 28.8229 165.411 28.8155C165.424 28.8219 165.437 28.8263 165.45 28.8321C165.438 28.8335 165.425 28.837 165.412 28.8377ZM168.036 32.6501C168.035 32.6759 168.033 32.7016 168.033 32.7275C167.993 32.7047 167.955 32.6828 167.916 32.661C167.955 32.6542 167.996 32.653 168.036 32.6501ZM172.104 32.625C172.109 32.6195 172.113 32.614 172.118 32.6086C172.121 32.6117 172.125 32.6151 172.128 32.6183C172.12 32.6204 172.112 32.6226 172.104 32.625ZM174.129 27.9967C173.963 27.9017 173.907 28.1705 173.847 28.2387C173.726 28.3752 173.808 28.468 173.914 28.5463C173.908 28.563 173.9 28.5789 173.894 28.5956C173.312 29.5422 173.387 30.7166 172.835 31.6747C172.811 31.7165 172.845 31.7875 172.863 31.8436C172.879 31.8785 172.909 31.9017 172.931 31.9314C172.733 31.8082 172.553 31.8324 172.397 32.0503C172.383 32.0976 172.383 32.1406 172.379 32.1849C172.227 32.2864 172.075 32.3879 171.924 32.4895C171.636 32.6107 171.337 32.6731 171.034 32.706C170.878 32.6487 170.717 32.607 170.546 32.5912C170.224 32.5935 170.033 32.8162 169.825 33.0118C169.808 32.734 169.699 32.5592 169.315 32.7475C169.101 32.8519 168.921 32.9634 168.763 32.689C169.025 32.5024 169.307 32.3619 169.63 32.3169C169.806 32.2972 170.092 32.4322 170.09 32.1237C170.088 31.903 169.83 31.9521 169.674 31.9668C169.541 31.9793 169.414 32.0538 169.284 32.1008C168.931 31.9382 168.676 32.1631 168.404 32.3223C168.39 32.2404 168.404 32.1413 168.366 32.0752C168.378 32.0248 168.396 31.9763 168.406 31.925C168.438 31.6065 168.417 31.3048 168.142 31.0811C168.104 31.0596 168.067 31.0501 168.03 31.0459C168.187 30.5054 168.247 29.9957 167.61 29.7017C167.612 29.6748 167.62 29.6505 167.618 29.6217C167.52 29.2805 167.259 29.0829 166.985 28.8974C167.117 28.7247 167.544 29.1048 167.503 28.6869C167.48 28.4574 167.233 28.5519 167.069 28.5782C167.063 28.5806 167.057 28.5832 167.051 28.5856C167.064 28.4314 166.998 28.3008 166.919 28.1747C166.905 28.1535 166.889 28.1336 166.874 28.1123C167.009 27.9626 167.226 27.8537 167.112 27.6137C167.076 27.5389 166.799 27.5795 166.633 27.5671C166.432 27.0807 166.964 27.1401 167.127 26.9251C167.168 26.9268 167.212 26.923 167.259 26.9101C167.661 26.3729 167.545 25.8896 167.105 25.4397C167.094 25.4363 167.088 25.4321 167.079 25.4285C167.225 25.4264 167.371 25.4245 167.518 25.4224C167.542 25.0292 167.22 25.0976 166.996 25.0344C167.006 25.0095 167.015 24.9847 167.02 24.9606C167.04 24.8895 167.049 24.8181 167.049 24.7465C167.052 24.7473 167.054 24.7521 167.057 24.7521C167.224 24.7494 167.338 24.6439 167.358 24.5001C167.382 24.3269 167.311 24.2492 167.212 24.1982C167.755 24.2081 167.986 23.8037 168.107 23.2543C167.945 22.7513 168.451 22.4227 168.441 21.9602C168.41 20.5707 169.276 19.4966 169.764 18.2951C170.103 17.4601 170.78 17.2081 171.639 17.3821C172.702 17.5975 173.411 18.357 173.553 19.4401C173.573 19.5889 173.606 19.7292 173.695 19.8494C174.608 21.0867 174.42 22.5437 174.514 23.9456C174.524 23.9701 174.535 23.9945 174.546 24.0189C174.546 24.0185 174.545 24.0186 174.544 24.0182C174.165 24.1821 174.437 24.2387 174.56 24.3199C174.552 24.3337 174.55 24.3473 174.539 24.3613C174.483 24.5525 174.556 24.726 174.618 24.9009C174.63 24.9311 174.629 24.9614 174.637 24.9917C174.399 25.0218 173.946 24.9095 174.423 25.4118C174.366 25.5236 174.31 25.6353 174.253 25.7471C174.218 25.7727 174.183 25.7992 174.158 25.8369C174.206 26.1916 174.367 26.539 173.892 26.7997C173.667 26.9236 173.802 27.2116 174.046 27.3461C174.051 27.3757 174.072 27.387 174.098 27.3925C174.075 27.4294 174.051 27.4662 174.028 27.503C174.126 27.5147 174.224 27.5263 174.321 27.5379C174.318 27.5499 174.318 27.5573 174.313 27.5714C174.238 27.7073 174.189 27.8543 174.129 27.9967Z" fill="#FFFFF5"/>
<path d="M149.142 29.2325C148.819 29.0551 148.536 29.1311 148.264 29.3137C148.476 29.5692 148.333 29.9694 148.621 30.1937C148.717 30.384 148.871 30.4167 149.04 30.3155C149.094 30.2831 149.104 30.1773 149.134 30.105C148.972 30.0652 148.811 30.0254 148.65 29.9855C148.649 29.6355 149.121 29.5887 149.142 29.2325Z" fill="#FFFFF5"/>
<path d="M148.24 29.3285C148.248 29.3227 148.257 29.3195 148.265 29.3139C148.264 29.312 148.263 29.3097 148.261 29.3079C148.261 29.308 148.24 29.3285 148.24 29.3285Z" fill="#FFFFF5"/>
<path d="M83.0906 19.0586C83.094 19.0643 83.0956 19.07 83.0988 19.0757C83.1026 19.0755 83.1064 19.0752 83.1102 19.075L83.0906 19.0586Z" fill="#FFFFF5"/>
<path d="M119.262 20.8424C119.231 20.7626 119.147 20.5755 119.02 20.6688C118.67 20.9259 118.589 21.3129 118.603 21.7256C118.604 21.7478 118.637 21.7687 118.77 21.9245C118.759 21.4077 119.483 21.4202 119.262 20.8424Z" fill="#FFFFF5"/>
<path d="M4.92414 23.755C5.18837 23.975 5.45882 23.9126 5.76516 23.5948C5.5086 23.4299 5.3137 23.1341 4.98631 23.3721C4.86491 23.4604 4.80264 23.6538 4.92414 23.755Z" fill="#FFFFF5"/>
<path d="M106.84 35.2751C106.689 35.3128 106.413 35.273 106.446 35.4945C106.469 35.6468 106.673 35.828 106.837 35.8907C107.136 36.0053 107.001 35.6819 107.088 35.5786C107.138 35.3626 107.097 35.211 106.84 35.2751Z" fill="#FFFFF5"/>
<path d="M89.7664 30.8129C89.7179 30.9529 89.6421 31.1198 89.8229 31.1879C90.3963 31.4037 89.8885 30.3961 90.5195 30.644C90.1948 30.532 89.9049 30.4133 89.7664 30.8129Z" fill="#FFFFF5"/>
<path d="M83.1094 19.0748C83.1073 19.0678 83.1033 19.065 83.1009 19.0584C83.0967 19.0581 83.0941 19.0589 83.0898 19.0584C83.0898 19.0585 83.1094 19.0748 83.1094 19.0748Z" fill="#FFFFF5"/>
<path d="M119.045 32.3943C118.846 32.3986 118.831 32.6217 118.833 32.7983C118.835 32.9892 118.952 33.0386 119.131 33.0235C119.293 32.9677 119.482 32.8597 119.425 32.6768C119.385 32.5492 119.176 32.3915 119.045 32.3943Z" fill="#FFFFF5"/>
<path d="M96.7842 19.0094C96.5036 18.8331 96.2222 18.8469 95.9763 19.2123C96.1552 19.2202 96.2694 19.2136 96.3792 19.232C96.8493 19.3105 97.0575 19.181 96.7842 19.0094Z" fill="#FFFFF5"/>
<path d="M41.343 30.3652C41.7357 30.5517 41.984 30.6315 42.2862 30.4338C41.9744 30.0482 41.7257 30.1643 41.343 30.3652Z" fill="#FFFFF5"/>
<path d="M130.567 17.0314C130.684 17.0764 130.813 17.1355 130.801 16.9644C130.783 16.6932 130.547 16.5449 130.347 16.4C130.32 16.381 130.183 16.5164 130.122 16.5611C130.131 16.9084 130.358 16.9507 130.567 17.0314Z" fill="#FFFFF5"/>
<path d="M149.046 3.69034C148.765 3.62578 148.604 3.18888 148.167 3.405C148.468 3.56483 148.651 3.86684 149.046 3.69034Z" fill="#FFFFF5"/>
<path d="M68.855 32.6863C68.8653 32.8869 68.9411 33.0592 69.2085 33.154C69.3064 32.8601 69.1694 32.715 69.0294 32.5813C69.0149 32.5675 68.8532 32.6523 68.855 32.6863Z" fill="#FFFFF5"/>
<path d="M82.113 20.8322C82.2155 20.8233 82.3567 20.8199 82.3371 20.637C82.2705 20.4714 82.1194 20.4759 81.9798 20.4927C81.8755 20.5052 81.719 20.5162 81.7598 20.6827C81.8046 20.8648 81.9768 20.8439 82.113 20.8322Z" fill="#FFFFF5"/>
<path d="M84.6737 17.8594C84.5346 17.4033 84.326 17.1062 84.0481 16.9683C84.3973 17.2402 84.2073 17.6722 84.6737 17.8594Z" fill="#FFFFF5"/>
<path d="M129.971 19.3149C130.299 19.5795 130.216 19.1503 130.35 19.0904C130.425 19.0569 130.522 19.0721 130.609 19.0654C130.924 18.9075 130.938 18.6677 130.793 18.385C130.969 18.132 131.106 17.8922 130.615 17.8687C129.964 17.3725 130.082 17.9117 130.069 18.2754C130.233 18.4645 130.295 18.7602 130.611 18.7896C130.47 18.8198 130.329 18.8712 130.188 18.875C130.002 18.8799 129.822 18.8779 129.819 19.1199C129.819 19.185 129.907 19.2634 129.971 19.3149Z" fill="#FFFFF5"/>
<path d="M4.79129 18.3762C4.44862 18.122 4.27878 18.2787 4.09033 18.4835C4.33145 18.5502 4.53857 18.5834 4.79129 18.3762Z" fill="#FFFFF5"/>
<path d="M53.0295 32.8969C53.3929 33.0397 53.5446 33.3542 53.8339 33.1158C53.8443 33.1072 53.8294 33.0679 53.8252 33.0332C53.6643 32.8084 53.429 32.9188 53.0295 32.8969Z" fill="#FFFFF5"/>
<path d="M107.345 36.2233C107.307 36.1924 107.14 36.2339 107.133 36.264C107.087 36.4774 107.034 36.7099 107.418 36.8124C107.368 36.5981 107.562 36.4038 107.345 36.2233Z" fill="#FFFFF5"/>
<path d="M185.901 32.1058C186.172 32.1653 186.398 32.2821 186.586 32.0663C186.611 32.0365 186.556 31.8799 186.499 31.8441C186.246 31.6842 186.073 31.8071 185.901 32.1058Z" fill="#FFFFF5"/>
<path d="M89.9037 31.981C89.8239 31.9549 89.7384 31.9469 89.6554 31.9308C89.4886 31.7409 89.41 31.9803 89.2875 32.0065C89.1102 31.9754 88.9181 32.1515 88.7515 31.9682C88.7674 31.9168 88.7709 31.8646 88.7621 31.8116C88.7279 31.5868 89.1322 31.4769 88.9401 31.2335C88.7764 31.026 88.5738 31.1609 88.3957 31.2627C87.9801 31.1508 87.81 31.6243 87.4387 31.6745C87.3253 31.6898 87.6327 31.8019 87.6322 31.9457C87.4576 32.1817 87.2374 32.3661 86.9401 32.217C86.538 32.0152 86.3071 32.2471 86.0632 32.4912C85.9581 32.6115 85.8529 32.7316 85.7477 32.8518C85.5715 32.8517 85.3954 32.8515 85.2192 32.8514C84.8316 32.4582 84.4755 32.4309 84.1507 32.7695L84.083 32.7781L84.0776 32.846C84.0477 32.7045 83.9411 32.6856 83.8223 32.6861C83.7635 32.6372 83.7047 32.5883 83.6458 32.5393C84.0845 32.3372 83.8222 32.1384 83.6431 31.9392C83.9002 31.8012 83.8952 31.594 83.8206 31.3477C83.7096 30.9811 83.4848 31.3105 83.3259 31.2536C83.245 31.0863 83.097 31.0526 82.931 31.0548C82.9368 30.892 82.9426 30.7291 82.9483 30.5661C83.013 30.1497 83.0189 29.776 82.4217 29.8412C82.3289 29.19 82.3409 28.5477 82.5839 27.925C82.633 27.7016 83.1748 27.6098 82.7605 27.2626C82.7577 27.1937 82.7548 27.1248 82.7519 27.0559C82.8079 26.9629 82.9306 26.81 82.9095 26.7864C82.7146 26.569 82.596 26.9182 82.4124 26.8716C82.269 26.8392 82.1122 26.8315 82.0387 26.6696C82.0356 26.5998 82.0326 26.53 82.0296 26.4602C82.2935 26.224 82.1343 26.0129 81.9905 25.801C82.255 25.7066 82.3899 25.5185 82.3969 25.2379C82.5799 25.0392 82.9003 24.875 82.5701 24.5473C82.7186 24.2501 82.8814 23.9582 83.0357 23.6677C83.2695 23.228 82.7608 23.7066 82.7493 23.4934C82.7932 22.809 82.1751 23.4375 82.0291 23.1297C82.0742 22.9353 82.247 22.9757 82.3781 22.9397C82.5146 22.9219 82.651 22.9042 82.7875 22.8865C82.7598 22.8399 82.7405 22.7849 82.7033 22.7482C82.5375 22.5848 82.3681 22.5317 82.2043 22.7536C82.0353 22.7521 81.8665 22.7506 81.6976 22.7491C81.7655 22.6503 81.8335 22.5515 81.9013 22.4528C82.1827 22.4269 82.2497 22.0239 82.5724 22.0708C82.9155 22.0739 82.9694 21.7751 83.1042 21.5607C82.91 21.1375 82.6839 20.7111 83.2089 20.3588C83.2229 20.3549 83.2322 20.3485 83.2447 20.3438C83.2375 20.3444 83.2327 20.3448 83.2253 20.3454C83.2238 20.3469 83.2073 20.3595 83.2073 20.3595C83.3539 20.1631 83.1282 20.1239 83.0628 20.0171C83.0782 19.8258 83.0936 19.6344 83.1089 19.443C83.1809 19.3168 83.1652 19.195 83.098 19.0757C82.617 19.1097 82.1306 19.1192 81.7031 19.3913C81.6447 19.4573 81.5864 19.5232 81.528 19.5892C81.3686 19.4246 81.1144 19.3515 81.0724 19.592C81.0205 19.8888 81.3597 19.7133 81.5117 19.785C81.5795 19.8357 81.6474 19.8864 81.7153 19.937C82.0126 20.2182 82.3864 20.1036 82.7318 20.136C82.67 20.4694 82.6082 20.8029 82.5465 21.1364C82.135 21.1191 81.9025 21.3632 81.7309 21.6961C81.5322 20.8628 81.1098 21.6713 80.8112 21.5706C80.7504 21.4037 80.6818 21.243 80.4977 21.1737C80.3659 21.1077 80.234 21.0419 80.102 20.976C80.1099 20.9209 80.1103 20.8657 80.1034 20.8104C80.357 20.6388 80.1361 20.5593 80.0434 20.4337C79.813 20.1214 80.0787 20.1277 80.276 20.0974C80.4917 20.0384 80.7609 20.4122 80.902 20.076C80.9549 19.95 80.6518 19.9409 80.4932 19.9272C80.0461 19.9122 79.9927 19.4659 79.7395 19.2385C80.0157 19.1899 80.1598 18.8707 80.2264 18.74C80.496 18.2107 79.9209 18.4858 79.7502 18.3481C79.7226 18.1694 80.4079 17.9961 79.7541 17.8128C80.1235 17.5175 80.3413 17.2249 79.7397 16.9459C79.4087 16.7922 78.988 17.0962 78.6965 16.7408C78.6362 16.68 78.5758 16.6192 78.5155 16.5584C78.4578 16.0837 78.1983 16.0015 77.7997 16.1894C77.5099 16.0181 77.22 15.8467 76.9302 15.6753C76.9106 15.5169 76.9161 15.2965 76.7077 15.3096C76.4835 15.3238 76.5685 15.5482 76.5581 15.6956C75.1553 15.6343 73.8103 15.7757 72.6486 16.6912C72.3433 16.9319 71.6318 16.8549 72.0844 17.5846C72.156 17.7 71.9962 17.8592 71.819 17.7672C71.0327 17.359 71.191 18.0101 71.1087 18.3932L70.8171 18.2546C70.8103 18.3199 70.7722 18.4132 70.8017 18.4464C71.0182 18.6904 70.986 18.9586 70.905 19.2367C70.5566 19.3304 70.6593 18.9075 70.41 18.8176C70.3993 19.0307 70.3897 19.2237 70.38 19.4168C70.1632 19.4636 70.2117 19.63 70.2177 19.7772C70.0372 19.9528 69.8567 20.1283 69.6761 20.3038C69.6296 20.6214 69.44 20.9169 69.5295 21.2554C69.5623 21.6919 69.2834 21.9626 69.0086 22.2354C69.0856 22.4843 68.5274 22.681 68.9494 22.9583C68.7701 23.6862 68.4078 24.4308 69.1425 25.0752C68.8143 25.0414 68.546 25.1137 68.3061 25.3807C67.9801 25.7435 68.0332 25.9166 68.5089 25.9766C68.5031 26.0297 68.4982 26.0827 68.4942 26.1359C68.4788 26.2507 68.4635 26.3656 68.4482 26.4804C68.3751 26.7438 67.9574 26.838 68.0932 27.2039C68.367 27.3481 68.4684 27.6242 68.6054 27.8732C68.2157 27.8613 68.1265 28.1277 68.084 28.4373C68.0661 28.4936 68.0663 28.5497 68.0846 28.6059C68.1456 28.9364 68.025 29.2292 67.8947 29.5199C67.9021 29.7726 67.8479 30.0698 68.262 30.0281C68.2045 30.2054 68.147 30.3826 68.0895 30.5599C68.0781 30.6159 68.0783 30.6718 68.0906 30.7277C68.0313 30.9649 67.972 31.202 67.9128 31.4392C67.7285 31.6208 67.6937 31.8043 67.9058 31.9909C67.9308 32.1724 67.8406 32.4327 68.1283 32.4599C68.4863 32.4937 68.4066 32.1923 68.4382 31.9856C68.6234 31.9696 68.8084 31.9537 68.9934 31.9378C69.1486 31.9798 69.234 31.8762 69.3229 31.7799C69.5672 31.7173 69.8999 31.3144 69.9632 31.9468C69.8293 32.1141 69.2166 32.1602 69.8198 32.514C69.6677 32.8047 69.6723 33.0825 69.8882 33.3428C69.9249 33.5403 69.7539 33.7832 70.0164 33.9314C70.0541 34.0582 70.0582 34.2077 70.2276 34.2459C70.5491 34.2222 70.9743 34.4693 71.0924 33.9142C71.5623 33.8558 71.3516 34.2494 71.4426 34.4426C71.4288 34.5201 71.2152 34.4546 71.3123 34.5589C71.5133 34.7751 71.7351 34.8188 71.8553 34.4584C72.0843 34.5342 72.191 34.899 72.5194 34.7401C73.4271 34.7051 74.3197 34.6231 75.0179 33.9362C75.1869 34.0478 75.3541 34.1315 75.5028 33.9069C75.7154 33.7277 75.9484 33.561 75.9146 33.2314C76.4832 33.154 76.8537 32.8094 77.1266 32.3326C77.6095 32.4876 77.409 31.8991 77.6797 31.8233C77.7369 31.8177 77.8246 31.834 77.8464 31.8033C78.3082 31.1526 78.7418 30.4781 79.4291 30.0291L79.5115 30.039L79.5938 30.0296C79.6191 30.2094 79.771 30.1422 79.8727 30.1729C79.3449 31.0615 79.4882 31.5828 80.2691 31.616C80.4107 31.6262 80.5725 31.5861 80.645 31.7675C80.6926 32.1862 80.8641 32.3966 81.3022 32.1593C81.1136 32.6488 81.4464 32.4953 81.679 32.4653C81.7285 32.7356 82.0896 32.5866 82.1626 32.8254C82.0152 32.9785 82.0357 33.1704 82.0399 33.3585C81.6445 33.5424 81.7397 33.7289 82.0368 33.9165C82.2003 34.122 82.1228 34.4724 82.4391 34.5858C82.6663 34.5504 82.936 34.7502 83.1177 34.463L83.1872 34.4431L83.2594 34.4466C83.4359 34.8542 83.6271 34.5613 83.8143 34.4582C83.9217 34.4543 84.0291 34.4505 84.1364 34.4467C84.1861 34.6725 84.3496 34.6399 84.511 34.6118C84.6004 34.7378 84.7129 34.8217 84.8741 34.7716C84.9088 34.7608 84.955 34.6872 84.947 34.6543C84.8954 34.4393 84.7222 34.4205 84.5411 34.4227C84.6577 33.5861 85.2582 34.3166 85.568 34.1052C86.1346 35.0066 86.4199 34.1139 86.8132 33.9098C87.1084 33.832 87.51 33.9692 87.6754 33.6445C87.8019 33.396 87.6226 33.1526 87.3595 33.0232C87.4949 32.7692 88.1178 32.8385 87.8342 32.3066C87.9686 32.3444 88.1702 31.8467 88.2452 32.3581C88.5201 32.8982 89.0014 32.8609 89.4512 32.2646C89.5649 32.2705 89.6787 32.2765 89.7925 32.2824C89.9635 32.2498 90.2338 32.4552 90.2885 32.1887C90.3334 31.97 90.0492 32.0286 89.9037 31.981ZM81.6874 30.9503C81.7032 30.9524 81.7128 30.9509 81.7275 30.9523C81.7062 30.9655 81.6925 30.9828 81.6667 30.9935C81.6551 30.9976 81.648 31.0026 81.6376 31.007C81.6533 30.9879 81.6642 30.9681 81.6874 30.9503ZM79.9071 26.0681C79.907 26.0694 79.9071 26.0706 79.907 26.0719C79.904 26.0701 79.902 26.0674 79.8989 26.0656C79.9017 26.0674 79.9043 26.0661 79.9071 26.0681ZM80.6101 27.1458C80.6141 27.16 80.6205 27.1714 80.6234 27.1869C80.6102 27.1807 80.597 27.1753 80.5836 27.1693C80.5953 27.1619 80.6008 27.1534 80.6101 27.1458ZM81.3101 27.0728C81.3424 27.0379 81.3684 27.0067 81.3905 26.9779C81.3947 26.9958 81.3928 27.0182 81.3917 27.04C81.3646 27.0509 81.3373 27.0619 81.3101 27.0728ZM81.7172 27.7837C81.7167 27.7791 81.7142 27.7762 81.714 27.7714C81.7158 27.7713 81.7177 27.7712 81.7197 27.771C81.7187 27.7752 81.7182 27.7795 81.7172 27.7837ZM73.2296 33.5755C73.2272 33.5727 73.2247 33.5704 73.2224 33.5676C73.2221 33.567 73.222 33.5663 73.2217 33.5656C73.2212 33.5654 73.2206 33.5655 73.2202 33.5653C73.22 33.5651 73.2199 33.5649 73.2196 33.5647C73.2206 33.5628 73.2216 33.5608 73.2226 33.5589C73.2281 33.5654 73.2335 33.572 73.239 33.5785C73.2356 33.5776 73.233 33.5764 73.2296 33.5755ZM70.5742 33.1256C70.5741 33.1261 70.5676 33.1635 70.5646 33.1803C70.5576 33.1765 70.5487 33.1762 70.5414 33.1731C70.5524 33.1573 70.5632 33.1415 70.5742 33.1256ZM70.7938 34.0104C70.8295 34.0315 70.8671 34.0518 70.9122 34.069C70.8717 34.085 70.8282 34.0893 70.7838 34.0899C70.7903 34.063 70.7897 34.037 70.7938 34.0104ZM71.2256 33.315C71.2262 33.3197 71.2281 33.3232 71.2289 33.3278C71.2139 33.3273 71.199 33.326 71.1844 33.3273C71.198 33.323 71.2102 33.3163 71.2256 33.315ZM72.8145 32.3171C72.8251 32.319 72.8363 32.3187 72.8468 32.3217C72.8229 32.3765 72.7832 32.4103 72.7375 32.4365C72.7545 32.4 72.7808 32.3599 72.8145 32.3171ZM70.9137 34.0687C70.9141 34.0683 70.9145 34.068 70.9149 34.0677C70.9151 34.0679 70.9151 34.068 70.9154 34.0683C70.9149 34.0685 70.9142 34.0685 70.9137 34.0687ZM71.0805 33.9124C71.0806 33.9089 71.0806 33.9054 71.0807 33.9019L71.0924 33.9142L71.0805 33.9124ZM75.4335 32.472C75.4275 32.5017 75.433 32.5301 75.4434 32.558C75.4041 32.5992 75.3648 32.6405 75.3256 32.6817C75.3218 32.6859 75.3205 32.6891 75.317 32.6932C75.2977 32.6188 75.2692 32.5535 75.1858 32.5411C74.5049 32.4942 73.852 32.56 73.3038 33.0299C73.2642 33.0884 73.2319 33.1485 73.2071 33.2105C73.2071 32.931 73.514 32.6579 73.2242 32.3724C72.9453 31.8768 72.4903 32.2898 72.1402 32.1619C71.9407 32.0191 71.8642 32.0972 71.8651 32.315C71.772 32.316 71.6791 32.3168 71.586 32.3177C71.5323 32.079 71.2157 31.9104 71.5528 31.584C72.1511 31.0046 71.3733 31.3548 71.2803 31.231C71.2178 31.0079 71.1411 30.785 71.2685 30.5586C71.5209 30.4287 71.5423 30.2651 71.2546 30.2066C71.0973 30.1747 70.9253 30.2262 70.808 30.0987C71.0035 29.9694 70.9472 29.7992 70.8453 29.6226C70.8092 29.5783 70.7687 29.5392 70.7313 29.4964C70.7296 29.3124 70.7279 29.1284 70.7262 28.9444C70.7235 28.8876 70.7418 28.7951 70.7149 28.7792C70.3522 28.5645 69.749 28.5119 70.3138 27.8331C70.462 27.6551 70.1719 27.5627 69.9418 27.5518C69.9697 27.5173 69.9929 27.4796 70.0236 27.4469C70.5789 27.0377 70.6621 26.4908 70.4841 25.868C70.4322 25.7974 70.3668 25.7503 70.2955 25.7134C70.2711 25.5698 70.2555 25.4184 70.0641 25.4295C70.0782 25.4157 70.0963 25.4112 70.1088 25.3937C70.272 25.2093 69.84 24.7398 70.4146 24.7522C70.4381 24.7099 70.4494 24.6732 70.4591 24.6373C70.5777 24.507 70.6966 24.3766 70.8152 24.2464C70.8667 24.234 70.9194 24.215 70.9754 24.1798C71.2359 23.495 71.5652 22.7827 71.5969 22.0851C71.6599 20.6969 72.4948 19.6474 72.9342 18.4318C73.2165 17.6506 73.8161 17.3373 74.6921 17.5173C75.6212 17.7081 76.5178 18.1442 76.7114 18.9998C76.9068 19.863 77.328 20.5575 77.6751 21.3171C77.6586 21.3442 77.6686 21.3661 77.6867 21.3865C77.576 21.5269 77.5763 21.6385 77.7561 21.7031C77.7559 21.7032 77.7558 21.7034 77.7555 21.7035C77.6053 22.0228 77.4701 22.3637 77.6505 22.7038C77.8819 23.1397 77.8013 23.5769 77.7402 24.0206C77.6262 24.034 77.5097 24.0541 77.523 24.211C77.5349 24.3533 77.6446 24.3664 77.7534 24.3735C77.747 24.3799 77.7402 24.3833 77.734 24.3904C77.6185 24.6794 77.741 24.9353 77.8495 25.1938C77.8587 25.2107 77.8612 25.2232 77.8685 25.2387C77.692 25.2141 77.5062 25.1881 77.2515 25.1525C77.4115 25.3829 77.5143 25.531 77.6159 25.6771C77.5742 25.6942 77.5332 25.7118 77.497 25.7325C77.3698 25.8287 77.2766 25.974 77.3405 26.1104C77.4962 26.4423 77.5143 26.6726 77.1127 26.8506C76.8176 26.9814 76.8973 27.2123 77.0973 27.4119C77.2522 27.5664 77.3821 27.7332 77.3513 27.9477C77.182 27.9925 76.9681 28.1097 76.9688 28.3119C76.9692 28.4236 77.0451 28.4274 77.1299 28.4214C77.0233 28.6223 76.9017 28.8588 76.8778 29.0453C76.8003 29.6533 76.1123 30.2922 76.8757 30.8883C76.1542 30.9788 75.964 31.2901 76.1194 32.0883C75.6739 31.7668 75.5471 32.1062 75.4335 32.472Z" fill="#FFFFF5"/>
<path d="M118.185 23.0134C117.996 23.1877 118.107 23.42 118.064 23.6203C118.34 23.375 118.338 23.3597 118.185 23.0134Z" fill="#FFFFF5"/>
<path d="M96.7103 17.997C96.7893 17.9903 96.8867 17.9518 96.8298 17.8077C96.7477 17.6903 96.7328 17.4654 96.4965 17.4978C96.4452 17.5048 96.3601 17.6252 96.3723 17.6721C96.4161 17.8399 96.4863 18.0161 96.7103 17.997Z" fill="#FFFFF5"/>
<path d="M83.5061 19.7292C83.4358 19.9536 83.5196 20.2397 83.2444 20.3437C83.7155 20.3088 83.7148 20.3003 83.5061 19.7292Z" fill="#FFFFF5"/>
<path d="M102.605 32.1414C102.509 32.1621 102.338 32.1069 102.377 32.2861C102.396 32.3709 102.525 32.4679 102.619 32.4895C102.726 32.5139 102.857 32.4551 102.857 32.3049C102.858 32.1345 102.71 32.1686 102.605 32.1414Z" fill="#FFFFF5"/>
<path d="M5.31529 20.3809C5.33457 20.4359 5.47263 20.5069 5.51452 20.4863C5.72908 20.3807 5.59741 20.1606 5.59935 19.9622C5.43474 20.0589 5.22984 20.137 5.31529 20.3809Z" fill="#FFFFF5"/>
<path d="M117.887 31.3889C117.787 31.405 117.628 31.3929 117.644 31.55C117.658 31.6873 117.755 31.7948 117.908 31.8233C118.055 31.8092 118.085 31.6977 118.087 31.5845C118.09 31.4588 118.026 31.3664 117.887 31.3889Z" fill="#FFFFF5"/>
<path d="M186.382 30.8062C186.284 30.8946 186.375 31.0177 186.478 31.0606C186.726 31.1644 186.834 30.9963 186.919 30.8024C186.739 30.6667 186.541 30.6643 186.382 30.8062Z" fill="#FFFFF5"/>
<path d="M148.485 6.75395C148.621 6.81511 148.688 6.70767 148.752 6.5685C148.721 6.5205 148.693 6.42172 148.638 6.40294C148.511 6.35949 148.408 6.44399 148.381 6.56139C148.368 6.61711 148.43 6.72883 148.485 6.75395Z" fill="#FFFFF5"/>
<path d="M118.053 23.6596C118.058 23.6468 118.059 23.6335 118.062 23.6204C118.052 23.6293 118.044 23.6364 118.033 23.6461L118.034 23.6466C118.036 23.6525 118.039 23.6583 118.042 23.6642C118.047 23.6634 118.049 23.6607 118.054 23.6599C118.054 23.6599 118.053 23.6596 118.053 23.6596Z" fill="#FFFFF5"/>
<path d="M59.7949 33.5906C59.7895 33.5164 59.7841 33.4421 59.7786 33.3679C59.4028 33.0543 59.1973 33.087 59.2437 33.6315C59.2436 33.6315 59.2437 33.6315 59.2437 33.6315C59.2471 33.7235 59.2507 33.8155 59.2541 33.9073C58.2661 34.573 57.2146 35.1105 56.0813 35.4832C55.7813 35.0243 55.487 35.2423 55.1929 35.4907C55.076 35.5497 54.9591 35.6087 54.8421 35.6677C54.5225 35.526 55.0403 34.9857 54.5005 34.9489C54.4886 34.6538 54.3826 34.4705 54.0396 34.5025C53.7305 34.5313 53.4159 34.5271 53.4103 34.9478C53.3039 34.8874 53.1976 34.827 53.0912 34.7667C53.1469 34.663 53.2027 34.5593 53.2584 34.4556C53.5313 34.2176 53.8794 33.787 53.3939 33.6656C52.4774 33.4363 52.7825 32.7762 52.9212 32.4004C53.1229 31.8541 53.1494 31.4912 52.6907 31.1144C52.2903 30.7854 52.4498 30.6605 52.8775 30.5317C53.0023 30.494 53.3405 30.4 53.3396 30.064C53.0681 30.064 52.5611 30.3507 52.7324 29.6859C52.9477 29.6747 53.1629 29.6636 53.3781 29.6525C53.3849 29.6209 53.3918 29.5892 53.3986 29.5576C53.1752 29.4864 52.9517 29.4152 52.7283 29.3441C52.7512 29.0396 52.4411 28.9519 52.3316 28.7337C52.3633 28.3138 53.0034 28.7937 52.8481 28.5052C52.441 27.7492 53.2657 28.1957 53.3226 27.9432C53.1625 27.5649 52.8247 27.7414 52.5611 27.6905C52.5856 27.4075 53.4107 27.3774 52.7963 26.8497C52.6587 26.7316 53.1312 26.7555 53.2408 26.5832C53.2759 26.7102 53.3111 26.8372 53.3461 26.9641C53.3925 26.9438 53.4388 26.9235 53.4851 26.9032C53.094 26.2641 53.8413 26.5411 53.9599 26.3122C54.297 25.8499 53.5749 25.9195 53.6078 25.61L53.6041 25.6044C54.0899 24.9841 53.6588 24.752 53.158 24.5494C53.114 24.3163 53.7133 23.9961 53.091 23.8411C53.2192 23.5119 53.5428 23.4465 53.8149 23.3112C53.9597 23.2391 53.9815 23.169 53.8034 23.12C53.7489 23.105 53.6873 23.1153 53.6289 23.114C53.563 23.002 53.4971 22.8899 53.4313 22.7779C54.1165 22.839 53.7567 22.0767 54.129 21.8912C54.6584 21.4678 54.0698 20.9114 54.2999 20.4524C54.2884 20.3985 54.3021 20.3521 54.3412 20.3132C54.5787 20.113 54.4665 19.8375 54.4961 19.5925C54.5127 19.4179 54.8105 19.2543 54.5166 19.0676C54.5492 18.6536 54.0488 18.9493 53.9831 18.6663C53.8592 18.4309 54.3012 18.2215 54.0145 17.9786C53.9768 17.5865 54.6126 17.8065 54.5838 17.2986C54.2772 17.4301 54.0296 17.5362 53.7821 17.6423C53.2672 17.0919 53.8503 16.8823 54.1133 16.5733H54.7384C54.6548 16.1695 54.2513 16.311 54.1337 16.0582C54.1908 15.8274 54.248 15.5965 54.3052 15.3657C54.2487 15.2436 54.1921 15.1216 54.1357 14.9995C54.542 15.0267 54.51 14.7328 54.494 14.4795C54.4888 14.398 54.6545 14.0742 54.3044 14.2625C53.9079 14.2033 53.8953 14.0283 54.1563 13.7707C54.2999 13.6611 54.5584 13.6903 54.5908 13.3986H53.6283C53.5041 13.2229 53.9282 13.3035 53.7604 12.9642C53.3462 12.1261 52.7855 12.8384 52.3218 12.713C51.9577 12.6145 51.8382 12.8097 51.8329 13.2011C51.797 15.8624 51.7299 18.5233 51.6729 21.1843C51.665 21.3301 51.6577 21.4759 51.6492 21.6218C51.5352 23.5562 50.9992 25.4279 50.7982 27.3493C50.7874 27.468 50.7766 27.5866 50.7659 27.7053C50.5642 28.7613 50.1469 29.7791 50.371 30.9029C50.5063 31.5818 50.6106 32.3047 50.5197 32.9797C50.437 33.5941 50.9579 34.1454 50.6077 34.7481C50.5894 34.7796 50.6944 34.8775 50.7341 34.9489C51.0309 35.4813 51.4899 36.1746 51.5047 36.564C51.5487 37.7194 52.3012 37.9666 53.0489 38.3475C53.1291 38.416 53.1946 38.4324 53.2531 38.4241C53.4839 38.518 53.7083 38.5895 53.785 38.1389C54.7008 38.6811 55.5202 38.0301 56.3774 37.8917C56.4017 37.8877 56.99 37.6344 56.6855 37.2018C56.6308 37.1241 56.8649 37.0405 56.9373 37.1019C57.479 37.5608 57.7571 37.0475 58.0061 36.7598C58.2608 36.4656 58.7174 36.4939 58.897 36.149C58.7572 35.8569 58.4994 36.082 58.3356 35.9657C59.3168 35.3989 59.9282 34.7058 60.1698 33.8863C60.1655 33.7274 60.1613 33.5684 60.1571 33.4094C60.0364 33.4697 59.9156 33.5302 59.7949 33.5906ZM53.9294 18.9488C53.921 18.9425 53.9126 18.9358 53.9042 18.9293C53.9147 18.9254 53.925 18.9226 53.9353 18.9179C53.9333 18.9282 53.9313 18.9385 53.9294 18.9488Z" fill="#FFFFF5"/>
<path d="M82.1895 18.555C82.247 18.6141 82.3044 18.6732 82.3619 18.7324C82.5112 19.0532 82.9713 18.6945 83.1008 19.0584C83.3881 19.0804 83.3341 18.8561 83.2488 18.7557C83.0301 18.4984 82.7441 18.3591 82.3938 18.5217C82.4616 18.2576 82.5968 17.9752 82.148 17.9086C81.6746 17.8383 81.9709 18.202 81.8878 18.3505C81.7868 18.4028 81.6909 18.4926 81.7663 18.5935C81.9073 18.7822 82.0474 18.5788 82.1895 18.555Z" fill="#FFFFF5"/>
<path d="M5.43637 21.848C5.34115 21.6082 5.14898 21.6211 4.95947 21.67C4.9287 21.6779 4.90181 21.8556 4.91647 21.8624C5.0852 21.9416 5.2637 22.0315 5.43637 21.848Z" fill="#FFFFF5"/>
<path d="M13.7925 41.9608C14.0948 41.7918 14.052 41.6116 13.9181 41.2268C13.8535 41.6041 13.823 41.7824 13.7925 41.9608Z" fill="#FFFFF5"/>
<path d="M3.9315 20.8112C3.93563 20.806 3.94268 20.8039 3.94727 20.7991C3.93552 20.799 3.92398 20.7989 3.91233 20.7989C3.91197 20.7987 3.91578 20.8012 3.91876 20.8031L3.91113 20.7983C3.91463 20.8018 3.91886 20.805 3.92241 20.8084C3.92482 20.809 3.92753 20.8096 3.92993 20.8102C3.93014 20.8103 3.93155 20.8112 3.9315 20.8112Z" fill="#FFFFF5"/>
<path d="M70.9398 29.2836C70.926 29.3042 71.0242 29.3999 71.0974 29.4957C71.1678 29.4018 71.2443 29.3441 71.2505 29.2796C71.2573 29.2085 71.1996 29.1311 71.1701 29.0564C71.0903 29.1301 70.9985 29.1957 70.9398 29.2836Z" fill="#FFFFF5"/>
<path d="M120.203 25.6521C120.068 25.6196 119.99 25.6729 119.954 25.8863C119.944 25.9753 120.07 25.9908 120.176 25.9844C120.254 25.9798 120.384 25.931 120.392 25.884C120.414 25.7646 120.326 25.6818 120.203 25.6521Z" fill="#FFFFF5"/>
</svg>
