<svg width="51" height="18" viewBox="0 0 51 18" fill="none" xmlns="http://www.w3.org/2000/svg">
<path d="M45.3592 9.1332C45.862 8.7238 46.5672 8.15454 47.5836 7.33257C46.1349 6.52686 44.9474 5.7641 43.7075 5.20875C42.5909 4.70699 41.4259 4.3899 40.2658 4.08078C39.5054 3.87678 39.1408 3.20313 39.2269 2.19348C39.3283 0.977948 40.0521 0.321759 40.8452 0.72311C43.8301 2.24035 46.8053 3.78763 49.75 5.4441C50.1198 5.65078 50.4925 6.57771 50.4718 7.17009C50.4501 7.81987 50.0743 8.6929 49.6762 9.0743C48.0326 10.6542 46.2919 12.0136 44.6532 13.6014C43.6795 14.5448 42.8236 15.7597 41.9169 16.8565C41.6119 17.2245 41.3429 17.7786 41.0043 17.9224C40.6198 18.0825 40.1287 18.0023 39.7714 17.7658C39.6244 17.6686 39.5873 16.816 39.7132 16.4446C39.9334 15.7841 40.2793 15.1812 40.6369 14.6441C41.4852 13.3828 42.375 12.1738 43.2536 10.9335C42.5913 10.8083 41.7914 10.5176 40.9837 10.5252C31.7001 10.6105 22.4135 10.7034 13.127 10.8805C9.7408 10.9471 6.35123 11.2395 2.96112 11.4552C2.5851 11.4779 2.20492 11.6536 1.83211 11.7953C0.964925 12.1247 0.433966 11.7089 0.281281 10.5505C0.146157 9.5348 0.66162 8.57848 1.48485 8.53357C3.83556 8.403 6.18492 8.3796 8.53708 8.26827C11.503 8.12974 14.4681 7.91838 17.4332 7.79129C19.2293 7.71455 21.0246 7.73353 22.8207 7.69893C25.1342 7.65798 27.4472 7.58253 29.7596 7.56067C31.9689 7.5401 34.1753 7.56914 36.383 7.57528C37.5092 7.57973 38.6408 7.53856 39.7633 7.60406C41.0431 7.68311 42.3252 7.76996 43.5863 8.02405C44.1361 8.13461 44.6311 8.66309 45.3616 9.13718L45.3592 9.1332Z" fill="#FFFFF5"/>
</svg>
