<svg width="37" height="12" viewBox="0 0 37 12" fill="none" xmlns="http://www.w3.org/2000/svg">
<path d="M32.6639 6.55733C33.0229 6.35454 33.5265 6.07268 34.2522 5.66566C33.2031 5.21903 32.3424 4.79979 31.4455 4.48723C30.6379 4.2049 29.7967 4.01753 28.9591 3.83439C28.4101 3.71364 28.1425 3.35672 28.1971 2.8341C28.2611 2.20487 28.7775 1.87823 29.3514 2.10211C31.5119 2.94818 33.6656 3.80966 35.7982 4.72724C36.0659 4.84178 36.3412 5.33039 36.3306 5.6376C36.3198 5.97459 36.0557 6.42062 35.7718 6.61091C34.6001 7.39928 33.3568 8.07126 32.1886 8.86385C31.4945 9.33473 30.8871 9.94892 30.2424 10.5008C30.0255 10.686 29.8359 10.9685 29.5931 11.0365C29.3175 11.1121 28.9633 11.061 28.7043 10.9312C28.5977 10.8778 28.5647 10.4344 28.6526 10.244C28.8062 9.90528 29.0508 9.59893 29.3044 9.327C29.9058 8.68855 30.5376 8.0781 31.1611 7.45116C30.6832 7.37324 30.1052 7.20669 29.5236 7.19487C22.8398 7.05821 16.1538 6.92537 9.46841 6.83629C7.03073 6.80487 4.59228 6.89062 2.15287 6.93656C1.88229 6.94103 1.60984 7.02485 1.34245 7.09114C0.720481 7.24531 0.335097 7.01904 0.216594 6.4145C0.111791 5.88445 0.475874 5.39789 1.0683 5.39062C2.75993 5.36865 4.45139 5.4023 6.14421 5.39034C8.27873 5.37622 10.4121 5.32427 12.5462 5.31608C13.8389 5.31125 15.1318 5.35611 16.4247 5.37315C18.0902 5.39699 19.7551 5.4029 21.4199 5.43663C23.0106 5.46902 24.5995 5.52711 26.1891 5.57334C27.0001 5.5976 27.8146 5.59829 28.6233 5.65418C29.5454 5.72018 30.4692 5.79028 31.3791 5.94681C31.7758 6.01494 32.1362 6.29902 32.6656 6.55945L32.6639 6.55733Z" fill="#FFFFF5"/>
</svg>
