<svg width="215" height="6" viewBox="0 0 215 6" fill="none" xmlns="http://www.w3.org/2000/svg">
<path d="M214.585 3.30154C202.25 3.03717 189.916 2.73716 177.589 2.52052C170.051 2.39068 162.511 2.3559 154.98 2.33716C148.058 2.31959 141.135 2.32578 134.22 2.41139C123.004 2.55149 111.772 2.65556 100.598 2.96299C70.669 3.77998 40.7738 4.69677 10.8617 5.56565C8.69313 5.63014 6.41405 5.83494 4.3773 5.5971C2.84975 5.41772 0.992656 4.73589 0.42423 4.09754C-0.458975 3.10368 1.25203 2.66477 3.47392 2.62124C16.1068 2.36092 28.7402 2.07289 41.3818 1.82069C64.9539 1.347 88.5176 0.841406 112.106 0.451281C122.534 0.278458 133.012 0.261284 143.47 0.362559C147.006 0.398725 150.543 0.442818 154.089 0.471253C157.133 0.496868 160.283 1.02014 163.206 0.84896C167.564 0.593603 171.764 1.46038 175.888 1.23172C181.429 0.926423 186.724 1.66211 192.14 1.77421C197.833 1.8883 203.535 2.01844 209.226 2.21968C211.078 2.28712 212.908 2.59582 214.748 2.79775C214.7 2.96317 214.651 3.13254 214.603 3.30192L214.585 3.30154Z" fill="#FFFFF5"/>
</svg>
