<svg width="97" height="7" viewBox="0 0 97 7" fill="none" xmlns="http://www.w3.org/2000/svg">
<path d="M96.6734 2.94051C91.131 2.73448 85.59 2.49281 80.05 2.33444C76.6622 2.24023 73.271 2.24103 69.8832 2.25783C66.7693 2.27292 63.6546 2.31176 60.5409 2.42995C55.4912 2.62287 50.4348 2.77986 45.399 3.13982C31.9113 4.09753 18.436 5.15482 4.95449 6.16431C3.97704 6.23899 2.94603 6.45443 2.03623 6.22632C1.35391 6.05426 0.53715 5.38157 0.298975 4.74625C-0.0710398 3.75712 0.710828 3.31039 1.71167 3.2564C7.40243 2.93664 13.0942 2.58918 18.7887 2.27749C29.407 1.69287 40.0224 1.07642 50.6456 0.575247C55.342 0.353334 60.0567 0.286743 64.759 0.338632C66.3491 0.358096 67.939 0.385482 69.5335 0.397176C70.9024 0.408416 72.3053 0.916531 73.6251 0.731664C75.5928 0.455894 77.4583 1.30237 79.3202 1.05439C81.8216 0.723126 84.1835 1.43342 86.617 1.51992C89.1753 1.60709 91.737 1.71026 94.2921 1.88454C95.1236 1.9432 95.9381 2.2431 96.7606 2.43624C96.7343 2.60179 96.7078 2.7713 96.6814 2.94081L96.6734 2.94051Z" fill="#FFFFF5"/>
</svg>
