<svg width="90" height="38" viewBox="0 0 90 38" fill="none" xmlns="http://www.w3.org/2000/svg">
<path d="M31.0314 38C24.0893 38.0084 17.2474 36.6844 10.4828 34.631C7.97688 33.872 5.46809 32.6113 3.18268 30.9331C-0.540418 28.2009 -1.0101 23.3688 1.84236 18.7897C3.52921 16.0827 5.63992 14.1853 7.85946 12.6758C10.9897 10.5422 14.1629 8.48882 17.4278 6.86548C20.2115 5.47825 23.1413 4.71507 26.0196 3.74528C27.8296 3.13811 29.6453 2.48456 31.4839 2.15989C35.9058 1.37562 40.3335 0.582923 44.7754 0.144409C49.6813 -0.340486 54.527 0.401615 59.3155 2.28216C61.0453 2.96102 62.947 2.67851 64.7713 2.83452C65.6677 2.91042 66.5641 2.97788 67.4605 3.058C68.4171 3.14654 69.3793 3.18027 70.3301 3.36158C72.8189 3.82961 75.3134 4.25969 77.7849 4.89638C81.4508 5.84087 84.9361 7.57384 87.8402 11.1579C90.9819 15.037 90.5466 19.7721 87.5022 23.1284C84.5467 26.3878 81.0756 27.7834 77.6417 29.3435C72.6585 31.612 67.5579 33.092 62.3971 34.0576C55.8015 35.2888 49.2001 36.4862 42.5845 37.3886C38.7554 37.9114 34.8891 37.8144 31.04 38H31.0314ZM39.7607 3.52181C39.7521 3.4164 39.7463 3.30677 39.7378 3.20136C38.0996 3.36158 36.4385 3.3405 34.8233 3.71998C29.6109 4.94276 24.3957 6.14446 19.3409 8.5352C14.962 10.6055 10.6231 12.8107 6.74826 16.5339C5.27048 17.9548 3.87288 19.6414 2.62421 21.4798C1.22089 23.5417 1.46146 25.8481 3.0538 27.522C3.61799 28.1165 4.21369 28.7448 4.86094 29.0568C7.38691 30.2585 9.91003 31.4939 12.4847 32.4342C18.0865 34.475 23.8172 35.1791 29.5651 35.3731C33.2137 35.4954 36.8767 35.2888 40.5225 34.9767C44.93 34.6015 49.3433 34.1545 53.7251 33.3871C58.5136 32.5438 63.282 31.4012 68.039 30.1953C72.965 28.9472 77.8164 27.1594 82.4216 24.2627C84.1657 23.1664 85.7953 21.543 87.3075 19.8354C88.5046 18.4861 88.5476 16.8501 87.697 15.0328C87.2101 13.9913 86.58 13.0468 85.9099 12.2499C83.6445 9.54716 80.9066 8.33703 78.1401 7.4094C72.5526 5.5415 66.8677 4.76145 61.1456 4.50847C60.0687 4.46208 58.989 4.39884 57.9179 4.25126C55.664 3.94767 53.4216 3.47121 51.1648 3.26882C49.0369 3.07908 46.9004 3.16763 44.7668 3.09595C44.3945 3.0833 44.0136 2.7249 43.6527 2.77971C42.3525 2.96945 41.0609 3.2646 39.7664 3.51759L39.7607 3.52181Z" fill="#4A2F04"/>
</svg>
